<?xml version="1.0" encoding="UTF-8"?>
<svg id="a" data-name="Layer 1" xmlns="http://www.w3.org/2000/svg" xmlns:xlink="http://www.w3.org/1999/xlink" viewBox="0 0 754.7 124">
  <defs>
    <style>
      .h {
        fill: url(#g);
      }

      .i {
        fill: url(#f);
      }

      .j {
        fill: url(#d);
      }

      .k {
        fill: url(#e);
      }

      .l {
        fill: url(#c);
      }

      .m {
        fill: url(#b);
      }

      .n {
        fill: #000047;
      }
    </style>
    <linearGradient id="b" x1="33.06" y1="94.92" x2="52.82" y2="60.7" gradientUnits="userSpaceOnUse">
      <stop offset="0" stop-color="blue"/>
      <stop offset="1" stop-color="#a0f"/>
    </linearGradient>
    <linearGradient id="c" x1="115.87" y1="69.47" x2="144.13" y2="20.53" gradientUnits="userSpaceOnUse">
      <stop offset="0" stop-color="red"/>
      <stop offset="1" stop-color="#fa0"/>
    </linearGradient>
    <linearGradient id="d" x1="46.44" y1="68.65" x2="74.7" y2="19.7" xlink:href="#b"/>
    <linearGradient id="e" x1="81.87" y1="103.47" x2="110.13" y2="54.53" xlink:href="#c"/>
    <linearGradient id="f" x1="165.19" y1="92.68" x2="199.67" y2="32.96" xlink:href="#b"/>
    <linearGradient id="g" x1="139.18" y1="97.3" x2="158.94" y2="63.08" xlink:href="#b"/>
  </defs>
  <g>
    <path class="m" d="m32,64h26c1.1,0,2,.9,2,2v13c0,8.28-6.72,15-15,15h-13c-1.1,0-2-.9-2-2v-26c0-1.1.9-2,2-2Z"/>
    <path class="l" d="m113,30h47c1.1,0,2,.9,2,2v13c0,8.28-6.72,15-15,15h-47c-1.1,0-2-.9-2-2v-13c0-8.28,6.72-15,15-15Z"/>
    <path class="j" d="m36,30h56c1.1,0,2,.9,2,2v13c0,8.28-6.72,15-15,15h-47c-1.1,0-2-.9-2-2v-22c0-3.31,2.69-6,6-6Z"/>
    <path class="k" d="m79,64h47c1.1,0,2,.9,2,2v13c0,8.28-6.72,15-15,15h-47c-1.1,0-2-.9-2-2v-13c0-8.28,6.72-15,15-15Z"/>
    <path class="i" d="m181,30h13c1.1,0,2,.9,2,2v56c0,3.31-2.69,6-6,6h-22c-1.1,0-2-.9-2-2v-47c0-8.28,6.72-15,15-15Z"/>
    <path class="h" d="m147,64h13c1.1,0,2,.9,2,2v26c0,1.1-.9,2-2,2h-26c-1.1,0-2-.9-2-2v-13c0-8.28,6.72-15,15-15Z"/>
  </g>
  <g>
    <path class="n" d="m245.82,31.31h34.28c.45,0,.82.37.82.82v8.5c0,.45-.37.82-.82.82h-22.66c-.45,0-.82.37-.82.82v15.95c0,.45.37.82.82.82h20.86c.45,0,.82.37.82.82v8.34c0,.45-.37.82-.82.82h-20.86c-.45,0-.82.37-.82.82v22.01c0,.45-.37.82-.82.82h-9.97c-.45,0-.82-.37-.82-.82v-59.73c0-.45.37-.82.82-.82Z"/>
    <path class="n" d="m289.93,62c0-18.66,13.01-32,31.26-32s31.26,13.34,31.26,32-13.01,32-31.26,32-31.26-13.34-31.26-32Zm50.66-.08c0-12.69-7.69-21.52-19.4-21.52s-19.4,8.84-19.4,21.52,7.69,21.61,19.4,21.61,19.4-8.76,19.4-21.61Z"/>
    <path class="n" d="m383.1,68.96h-4.77c-.45,0-.82.37-.82.82v22.09c0,.45-.37.82-.82.82h-9.98c-.45,0-.82-.37-.82-.82v-59.73c0-.45.37-.82.82-.82h22.58c11.95,0,20.62,8.27,20.62,18.9,0,8.32-5.19,14.98-13.05,17.54-.51.17-.75.76-.47,1.22l13.74,22.47c.34.55-.06,1.25-.7,1.25h-11.24c-.29,0-.56-.15-.71-.4l-13.68-22.93c-.15-.25-.42-.4-.71-.4Zm15.12-18.58c0-4.99-3.85-8.92-10.07-8.92h-9.82c-.45,0-.82.37-.82.82v16.28c0,.45.37.82.82.82h9.82c6.22,0,10.07-4.17,10.07-9Z"/>
    <path class="n" d="m424.58,31.31h34.2c.45,0,.82.37.82.82v8.5c0,.45-.37.82-.82.82h-22.58c-.45,0-.82.37-.82.82v13.66c0,.45.37.82.82.82h20.94c.45,0,.82.37.82.82v8.26c0,.45-.37.82-.82.82h-20.94c-.45,0-.82.37-.82.82v14.15c0,.45.37.82.82.82h22.99c.45,0,.82.37.82.82v8.58c0,.45-.37.82-.82.82h-34.61c-.45,0-.82-.37-.82-.82v-59.73c0-.45.37-.82.82-.82Z"/>
    <path class="n" d="m489.07,52.92l11.29,6.87c5.81,3.52,10.56,8.43,10.56,16.61,0,10.64-8.1,17.6-19.81,17.6-12.4,0-18.78-7.43-20.36-17.01-.06-.39.16-.77.53-.9l8.65-3.18c.48-.18,1,.12,1.09.62.86,4.71,4.06,10.08,10.41,10.08,4.99,0,7.69-3.11,7.69-6.87,0-2.78-1.15-5.4-4.99-7.69l-10.23-6.06c-5.56-3.27-11.13-6.96-11.13-16.37,0-8.84,6.88-16.61,18.25-16.61,10.41,0,16.43,5.1,19.01,13.49.13.42-.1.87-.51,1.01l-8.49,3.06c-.42.15-.88-.07-1.05-.49-2-5.07-5.23-6.93-9.29-6.93-3.85,0-6.55,2.29-6.55,5.81s1.72,5.07,4.91,6.96Z"/>
    <path class="n" d="m525.41,31.31h9.97c.45,0,.82.37.82.82v59.73c0,.45-.37.82-.82.82h-9.97c-.45,0-.82-.37-.82-.82v-59.73c0-.45.37-.82.82-.82Z"/>
    <path class="n" d="m579.18,59.46h30.45c.4,0,.74.28.81.67.15.83.24,2.12.24,4.16-.08,17.35-11.29,29.71-29.79,29.71s-31.26-13.34-31.26-32,13.09-32,31.26-32c10.67,0,19.33,4.57,24.62,12.06.25.35.18.83-.15,1.11l-6.58,5.49c-.37.31-.92.23-1.2-.17-3.74-5.2-9.8-8.26-16.68-8.26-11.62,0-19.48,8.92-19.48,21.69s7.78,21.69,19.48,21.69c9.74,0,16.01-5.13,17.95-12.99.13-.51-.28-1-.8-1h-18.86c-.45,0-.82-.37-.82-.82v-8.5c0-.45.37-.82.82-.82Z"/>
    <path class="n" d="m624.36,31.31h9.98c.45,0,.82.37.82.82v23.89c0,.45.37.82.82.82h22.25c.45,0,.82-.37.82-.82v-23.89c0-.45.37-.82.82-.82h9.98c.45,0,.82.37.82.82v59.73c0,.45-.37.82-.82.82h-9.98c-.45,0-.82-.37-.82-.82v-24.05c0-.45-.37-.82-.82-.82h-22.25c-.45,0-.82.37-.82.82v24.05c0,.45-.37.82-.82.82h-9.98c-.45,0-.82-.37-.82-.82v-59.73c0-.45.37-.82.82-.82Z"/>
    <path class="n" d="m696.87,41.46h-13.74c-.45,0-.82-.37-.82-.82v-8.5c0-.45.37-.82.82-.82h40.75c.45,0,.82.37.82.82v8.5c0,.45-.37.82-.82.82h-13.74c-.45,0-.82.37-.82.82v49.59c0,.45-.37.82-.82.82h-9.98c-.45,0-.82-.37-.82-.82v-49.59c0-.45-.37-.82-.82-.82Z"/>
  </g>
</svg>