<?xml version="1.0" encoding="UTF-8" standalone="no"?>
<!-- Created with Inkscape (http://www.inkscape.org/) -->

<svg
   width="189.91814mm"
   height="153.82956mm"
   viewBox="0 0 189.91814 153.82956"
   version="1.1"
   id="svg134581"
   xmlns:xlink="http://www.w3.org/1999/xlink"
   xmlns="http://www.w3.org/2000/svg"
   xmlns:svg="http://www.w3.org/2000/svg">
  <defs
     id="defs134578">
    <marker
       style="overflow:visible"
       id="Arrow1Mend"
       refX="0"
       refY="0"
       orient="auto">
      <path
         transform="matrix(-0.4,0,0,-0.4,-4,0)"
         style="fill:context-stroke;fill-rule:evenodd;stroke:context-stroke;stroke-width:1pt"
         d="M 0,0 5,-5 -12.5,0 5,5 Z"
         id="path95064" />
    </marker>
    <marker
       style="overflow:visible"
       id="Arrow1Mend-7"
       refX="0"
       refY="0"
       orient="auto">
      <path
         transform="matrix(-0.4,0,0,-0.4,-4,0)"
         style="fill:context-stroke;fill-rule:evenodd;stroke:context-stroke;stroke-width:1pt"
         d="M 0,0 5,-5 -12.5,0 5,5 Z"
         id="path95064-1" />
    </marker>
    <g
       id="g5557">
      <symbol
         overflow="visible"
         id="symbol3644">
        <path
           style="stroke:none"
           d=""
           id="path4933" />
      </symbol>
      <symbol
         overflow="visible"
         id="symbol3375">
        <path
           style="stroke:none"
           d="m 2.859375,-6.8125 c 0,0 0,-0.109375 -0.125,-0.109375 -0.234375,0 -0.953125,0.078125 -1.21875,0.109375 -0.078125,0 -0.1875,0.015625 -0.1875,0.1875 0,0.125 0.09375,0.125 0.234375,0.125 0.484375,0 0.5,0.0625 0.5,0.171875 L 2.03125,-6.125 0.59375,-0.390625 c -0.046875,0.140625 -0.046875,0.15625 -0.046875,0.21875 0,0.234375 0.203125,0.28125 0.296875,0.28125 0.15625,0 0.3125,-0.125 0.359375,-0.265625 l 0.1875,-0.75 0.21875,-0.890625 C 1.671875,-2.03125 1.734375,-2.25 1.78125,-2.46875 1.796875,-2.53125 1.890625,-2.859375 1.890625,-2.921875 1.921875,-3.015625 2.234375,-3.5625 2.578125,-3.84375 2.796875,-4 3.09375,-4.1875 3.53125,-4.1875 c 0.421875,0 0.53125,0.34375 0.53125,0.703125 0,0.53125 -0.375,1.625 -0.609375,2.234375 C 3.375,-1.03125 3.3125,-0.90625 3.3125,-0.703125 c 0,0.46875 0.359375,0.8125 0.828125,0.8125 0.9375,0 1.296875,-1.453125 1.296875,-1.53125 0,-0.109375 -0.078125,-0.109375 -0.109375,-0.109375 -0.109375,0 -0.109375,0.03125 -0.15625,0.1875 -0.140625,0.53125 -0.46875,1.234375 -1.015625,1.234375 -0.171875,0 -0.234375,-0.09375 -0.234375,-0.328125 0,-0.25 0.078125,-0.484375 0.171875,-0.703125 0.15625,-0.4375 0.609375,-1.625 0.609375,-2.203125 0,-0.640625 -0.390625,-1.0625 -1.140625,-1.0625 -0.625,0 -1.109375,0.3125 -1.484375,0.765625 z m 0,0"
           id="path1909" />
      </symbol>
      <symbol
         overflow="visible"
         id="symbol5652">
        <path
           style="stroke:none"
           d=""
           id="path4343" />
      </symbol>
      <symbol
         overflow="visible"
         id="symbol9079">
        <path
           style="stroke:none"
           d="m 2.328125,-4.4375 c 0,-0.1875 0,-0.1875 -0.203125,-0.1875 -0.453125,0.4375 -1.078125,0.4375 -1.359375,0.4375 v 0.25 c 0.15625,0 0.625,0 1,-0.1875 v 3.546875 c 0,0.234375 0,0.328125 -0.6875,0.328125 H 0.8125 V 0 c 0.125,0 0.984375,-0.03125 1.234375,-0.03125 0.21875,0 1.09375,0.03125 1.25,0.03125 V -0.25 H 3.03125 c -0.703125,0 -0.703125,-0.09375 -0.703125,-0.328125 z m 0,0"
           id="path7874" />
      </symbol>
    </g>
    <g
       id="g5153">
      <symbol
         overflow="visible"
         id="symbol5024">
        <path
           style="stroke:none"
           d=""
           id="path8244" />
      </symbol>
      <symbol
         overflow="visible"
         id="symbol193">
        <path
           style="stroke:none"
           d="m 2.859375,-6.8125 c 0,0 0,-0.109375 -0.125,-0.109375 -0.234375,0 -0.953125,0.078125 -1.21875,0.109375 -0.078125,0 -0.1875,0.015625 -0.1875,0.1875 0,0.125 0.09375,0.125 0.234375,0.125 0.484375,0 0.5,0.0625 0.5,0.171875 L 2.03125,-6.125 0.59375,-0.390625 c -0.046875,0.140625 -0.046875,0.15625 -0.046875,0.21875 0,0.234375 0.203125,0.28125 0.296875,0.28125 0.15625,0 0.3125,-0.125 0.359375,-0.265625 l 0.1875,-0.75 0.21875,-0.890625 C 1.671875,-2.03125 1.734375,-2.25 1.78125,-2.46875 1.796875,-2.53125 1.890625,-2.859375 1.890625,-2.921875 1.921875,-3.015625 2.234375,-3.5625 2.578125,-3.84375 2.796875,-4 3.09375,-4.1875 3.53125,-4.1875 c 0.421875,0 0.53125,0.34375 0.53125,0.703125 0,0.53125 -0.375,1.625 -0.609375,2.234375 C 3.375,-1.03125 3.3125,-0.90625 3.3125,-0.703125 c 0,0.46875 0.359375,0.8125 0.828125,0.8125 0.9375,0 1.296875,-1.453125 1.296875,-1.53125 0,-0.109375 -0.078125,-0.109375 -0.109375,-0.109375 -0.109375,0 -0.109375,0.03125 -0.15625,0.1875 -0.140625,0.53125 -0.46875,1.234375 -1.015625,1.234375 -0.171875,0 -0.234375,-0.09375 -0.234375,-0.328125 0,-0.25 0.078125,-0.484375 0.171875,-0.703125 0.15625,-0.4375 0.609375,-1.625 0.609375,-2.203125 0,-0.640625 -0.390625,-1.0625 -1.140625,-1.0625 -0.625,0 -1.109375,0.3125 -1.484375,0.765625 z m 0,0"
           id="path6235" />
      </symbol>
      <symbol
         overflow="visible"
         id="symbol8212">
        <path
           style="stroke:none"
           d=""
           id="path1817" />
      </symbol>
      <symbol
         overflow="visible"
         id="symbol995">
        <path
           style="stroke:none"
           d="M 3.515625,-1.265625 H 3.28125 c -0.015625,0.15625 -0.09375,0.5625 -0.1875,0.625 C 3.046875,-0.59375 2.515625,-0.59375 2.40625,-0.59375 H 1.125 c 0.734375,-0.640625 0.984375,-0.84375 1.390625,-1.171875 0.515625,-0.40625 1,-0.84375 1,-1.5 0,-0.84375 -0.734375,-1.359375 -1.625,-1.359375 -0.859375,0 -1.453125,0.609375 -1.453125,1.25 0,0.34375 0.296875,0.390625 0.375,0.390625 0.15625,0 0.359375,-0.125 0.359375,-0.375 0,-0.125 -0.046875,-0.375 -0.40625,-0.375 C 0.984375,-4.21875 1.453125,-4.375 1.78125,-4.375 c 0.703125,0 1.0625,0.546875 1.0625,1.109375 0,0.609375 -0.4375,1.078125 -0.65625,1.328125 L 0.515625,-0.265625 C 0.4375,-0.203125 0.4375,-0.1875 0.4375,0 h 2.875 z m 0,0"
           id="path3259" />
      </symbol>
    </g>
    <g
       id="g2073">
      <symbol
         overflow="visible"
         id="symbol4872">
        <path
           style="stroke:none"
           d=""
           id="path2680" />
      </symbol>
      <symbol
         overflow="visible"
         id="symbol4438">
        <path
           style="stroke:none"
           d="m 3.65625,-3.984375 h 0.859375 c 0.203125,0 0.296875,0 0.296875,-0.203125 0,-0.109375 -0.09375,-0.109375 -0.265625,-0.109375 H 3.71875 L 3.921875,-5.4375 c 0.046875,-0.203125 0.1875,-0.90625 0.25,-1.03125 0.078125,-0.1875 0.25,-0.34375 0.46875,-0.34375 0.03125,0 0.296875,0 0.484375,0.1875 -0.4375,0.03125 -0.546875,0.390625 -0.546875,0.53125 0,0.234375 0.1875,0.359375 0.375,0.359375 C 5.21875,-5.734375 5.5,-5.96875 5.5,-6.34375 c 0,-0.453125 -0.453125,-0.6875 -0.859375,-0.6875 -0.34375,0 -0.96875,0.1875 -1.265625,1.171875 -0.0625,0.203125 -0.09375,0.3125 -0.328125,1.5625 h -0.6875 c -0.203125,0 -0.3125,0 -0.3125,0.1875 0,0.125 0.09375,0.125 0.28125,0.125 h 0.65625 L 2.25,-0.046875 c -0.1875,0.96875 -0.359375,1.875 -0.875,1.875 -0.046875,0 -0.28125,0 -0.484375,-0.1875 C 1.359375,1.609375 1.453125,1.25 1.453125,1.109375 1.453125,0.875 1.265625,0.75 1.078125,0.75 0.8125,0.75 0.53125,0.984375 0.53125,1.359375 c 0,0.4375 0.4375,0.6875 0.84375,0.6875 0.546875,0 0.953125,-0.59375 1.125,-0.96875 0.328125,-0.625 0.546875,-1.828125 0.5625,-1.90625 z m 0,0"
           id="path8629" />
      </symbol>
    </g>
    <g
       id="g2513">
      <symbol
         overflow="visible"
         id="symbol6118">
        <path
           style="stroke:none"
           d=""
           id="path3969" />
      </symbol>
      <symbol
         overflow="visible"
         id="symbol8883">
        <path
           style="stroke:none"
           d="m 1.859375,-2.296875 c 0.296875,0 1.03125,-0.03125 1.53125,-0.234375 0.703125,-0.296875 0.75,-0.890625 0.75,-1.03125 0,-0.4375 -0.375,-0.84375 -1.0625,-0.84375 -1.109375,0 -2.625,0.96875 -2.625,2.71875 0,1.015625 0.59375,1.796875 1.578125,1.796875 1.421875,0 2.25,-1.0625 2.25,-1.171875 0,-0.0625 -0.046875,-0.140625 -0.109375,-0.140625 -0.0625,0 -0.078125,0.03125 -0.140625,0.109375 -0.78125,0.984375 -1.875,0.984375 -1.984375,0.984375 -0.78125,0 -0.875,-0.84375 -0.875,-1.15625 0,-0.125 0.015625,-0.421875 0.15625,-1.03125 z m -0.46875,-0.21875 C 1.78125,-4.03125 2.8125,-4.1875 3.078125,-4.1875 c 0.453125,0 0.734375,0.296875 0.734375,0.625 0,1.046875 -1.59375,1.046875 -2.015625,1.046875 z m 0,0"
           id="path3291" />
      </symbol>
      <symbol
         overflow="visible"
         id="symbol2038">
        <path
           style="stroke:none"
           d=""
           id="path8450" />
      </symbol>
      <symbol
         overflow="visible"
         id="symbol9320">
        <path
           style="stroke:none"
           d="m 2.9375,-6.375 c 0,-0.25 0,-0.265625 -0.234375,-0.265625 C 2.078125,-6 1.203125,-6 0.890625,-6 v 0.3125 c 0.203125,0 0.78125,0 1.296875,-0.265625 v 5.171875 c 0,0.359375 -0.03125,0.46875 -0.921875,0.46875 h -0.3125 V 0 c 0.34375,-0.03125 1.203125,-0.03125 1.609375,-0.03125 0.390625,0 1.265625,0 1.609375,0.03125 v -0.3125 h -0.3125 c -0.90625,0 -0.921875,-0.109375 -0.921875,-0.46875 z m 0,0"
           id="path9542" />
      </symbol>
    </g>
    <g
       id="g1753">
      <symbol
         overflow="visible"
         id="symbol8491">
        <path
           style="stroke:none"
           d=""
           id="path5659" />
      </symbol>
      <symbol
         overflow="visible"
         id="symbol8139">
        <path
           style="stroke:none"
           d="m 1.859375,-2.296875 c 0.296875,0 1.03125,-0.03125 1.53125,-0.234375 0.703125,-0.296875 0.75,-0.890625 0.75,-1.03125 0,-0.4375 -0.375,-0.84375 -1.0625,-0.84375 -1.109375,0 -2.625,0.96875 -2.625,2.71875 0,1.015625 0.59375,1.796875 1.578125,1.796875 1.421875,0 2.25,-1.0625 2.25,-1.171875 0,-0.0625 -0.046875,-0.140625 -0.109375,-0.140625 -0.0625,0 -0.078125,0.03125 -0.140625,0.109375 -0.78125,0.984375 -1.875,0.984375 -1.984375,0.984375 -0.78125,0 -0.875,-0.84375 -0.875,-1.15625 0,-0.125 0.015625,-0.421875 0.15625,-1.03125 z m -0.46875,-0.21875 C 1.78125,-4.03125 2.8125,-4.1875 3.078125,-4.1875 c 0.453125,0 0.734375,0.296875 0.734375,0.625 0,1.046875 -1.59375,1.046875 -2.015625,1.046875 z m 0,0"
           id="path2176" />
      </symbol>
      <symbol
         overflow="visible"
         id="symbol5046">
        <path
           style="stroke:none"
           d=""
           id="path5972" />
      </symbol>
      <symbol
         overflow="visible"
         id="symbol45">
        <path
           style="stroke:none"
           d="m 2.328125,-4.4375 c 0,-0.1875 0,-0.1875 -0.203125,-0.1875 -0.453125,0.4375 -1.078125,0.4375 -1.359375,0.4375 v 0.25 c 0.15625,0 0.625,0 1,-0.1875 v 3.546875 c 0,0.234375 0,0.328125 -0.6875,0.328125 H 0.8125 V 0 c 0.125,0 0.984375,-0.03125 1.234375,-0.03125 0.21875,0 1.09375,0.03125 1.25,0.03125 V -0.25 H 3.03125 c -0.703125,0 -0.703125,-0.09375 -0.703125,-0.328125 z m 0,0"
           id="path6351" />
      </symbol>
    </g>
    <g
       id="g4344">
      <symbol
         overflow="visible"
         id="symbol9264">
        <path
           style="stroke:none"
           d=""
           id="path16" />
      </symbol>
      <symbol
         overflow="visible"
         id="symbol5625">
        <path
           style="stroke:none"
           d="m 1.859375,-2.296875 c 0.296875,0 1.03125,-0.03125 1.53125,-0.234375 0.703125,-0.296875 0.75,-0.890625 0.75,-1.03125 0,-0.4375 -0.375,-0.84375 -1.0625,-0.84375 -1.109375,0 -2.625,0.96875 -2.625,2.71875 0,1.015625 0.59375,1.796875 1.578125,1.796875 1.421875,0 2.25,-1.0625 2.25,-1.171875 0,-0.0625 -0.046875,-0.140625 -0.109375,-0.140625 -0.0625,0 -0.078125,0.03125 -0.140625,0.109375 -0.78125,0.984375 -1.875,0.984375 -1.984375,0.984375 -0.78125,0 -0.875,-0.84375 -0.875,-1.15625 0,-0.125 0.015625,-0.421875 0.15625,-1.03125 z m -0.46875,-0.21875 C 1.78125,-4.03125 2.8125,-4.1875 3.078125,-4.1875 c 0.453125,0 0.734375,0.296875 0.734375,0.625 0,1.046875 -1.59375,1.046875 -2.015625,1.046875 z m 0,0"
           id="path9740" />
      </symbol>
      <symbol
         overflow="visible"
         id="symbol4524">
        <path
           style="stroke:none"
           d=""
           id="path8677" />
      </symbol>
      <symbol
         overflow="visible"
         id="symbol7802">
        <path
           style="stroke:none"
           d="M 3.515625,-1.265625 H 3.28125 c -0.015625,0.15625 -0.09375,0.5625 -0.1875,0.625 C 3.046875,-0.59375 2.515625,-0.59375 2.40625,-0.59375 H 1.125 c 0.734375,-0.640625 0.984375,-0.84375 1.390625,-1.171875 0.515625,-0.40625 1,-0.84375 1,-1.5 0,-0.84375 -0.734375,-1.359375 -1.625,-1.359375 -0.859375,0 -1.453125,0.609375 -1.453125,1.25 0,0.34375 0.296875,0.390625 0.375,0.390625 0.15625,0 0.359375,-0.125 0.359375,-0.375 0,-0.125 -0.046875,-0.375 -0.40625,-0.375 C 0.984375,-4.21875 1.453125,-4.375 1.78125,-4.375 c 0.703125,0 1.0625,0.546875 1.0625,1.109375 0,0.609375 -0.4375,1.078125 -0.65625,1.328125 L 0.515625,-0.265625 C 0.4375,-0.203125 0.4375,-0.1875 0.4375,0 h 2.875 z m 0,0"
           id="path285" />
      </symbol>
    </g>
    <g
       id="g9784">
      <symbol
         overflow="visible"
         id="symbol1828">
        <path
           style="stroke:none"
           d=""
           id="path3626" />
      </symbol>
      <symbol
         overflow="visible"
         id="symbol125">
        <path
           style="stroke:none"
           d="m 4.671875,-3.703125 c 0,-0.546875 -0.265625,-0.703125 -0.4375,-0.703125 -0.25,0 -0.5,0.265625 -0.5,0.484375 0,0.125 0.046875,0.1875 0.15625,0.296875 0.21875,0.203125 0.34375,0.453125 0.34375,0.8125 0,0.421875 -0.609375,2.703125 -1.765625,2.703125 -0.515625,0 -0.75,-0.34375 -0.75,-0.875 0,-0.546875 0.28125,-1.28125 0.578125,-2.109375 0.078125,-0.171875 0.125,-0.3125 0.125,-0.5 0,-0.4375 -0.3125,-0.8125 -0.8125,-0.8125 -0.9375,0 -1.3125,1.453125 -1.3125,1.53125 0,0.109375 0.09375,0.109375 0.109375,0.109375 0.109375,0 0.109375,-0.03125 0.15625,-0.1875 0.296875,-1 0.71875,-1.234375 1.015625,-1.234375 0.078125,0 0.25,0 0.25,0.3125 0,0.25 -0.109375,0.53125 -0.171875,0.703125 -0.4375,1.15625 -0.5625,1.609375 -0.5625,2.046875 0,1.078125 0.875,1.234375 1.328125,1.234375 1.671875,0 2.25,-3.296875 2.25,-3.8125 z m 0,0"
           id="path7418" />
      </symbol>
      <symbol
         overflow="visible"
         id="symbol2463">
        <path
           style="stroke:none"
           d=""
           id="path188" />
      </symbol>
      <symbol
         overflow="visible"
         id="symbol6180">
        <path
           style="stroke:none"
           d="M 3.515625,-1.265625 H 3.28125 c -0.015625,0.15625 -0.09375,0.5625 -0.1875,0.625 C 3.046875,-0.59375 2.515625,-0.59375 2.40625,-0.59375 H 1.125 c 0.734375,-0.640625 0.984375,-0.84375 1.390625,-1.171875 0.515625,-0.40625 1,-0.84375 1,-1.5 0,-0.84375 -0.734375,-1.359375 -1.625,-1.359375 -0.859375,0 -1.453125,0.609375 -1.453125,1.25 0,0.34375 0.296875,0.390625 0.375,0.390625 0.15625,0 0.359375,-0.125 0.359375,-0.375 0,-0.125 -0.046875,-0.375 -0.40625,-0.375 C 0.984375,-4.21875 1.453125,-4.375 1.78125,-4.375 c 0.703125,0 1.0625,0.546875 1.0625,1.109375 0,0.609375 -0.4375,1.078125 -0.65625,1.328125 L 0.515625,-0.265625 C 0.4375,-0.203125 0.4375,-0.1875 0.4375,0 h 2.875 z m 0,0"
           id="path5673" />
      </symbol>
    </g>
    <g
       id="g2555">
      <symbol
         overflow="visible"
         id="symbol4056">
        <path
           style="stroke:none"
           d=""
           id="path2081" />
      </symbol>
      <symbol
         overflow="visible"
         id="symbol6826">
        <path
           style="stroke:none"
           d="m 4.671875,-3.703125 c 0,-0.546875 -0.265625,-0.703125 -0.4375,-0.703125 -0.25,0 -0.5,0.265625 -0.5,0.484375 0,0.125 0.046875,0.1875 0.15625,0.296875 0.21875,0.203125 0.34375,0.453125 0.34375,0.8125 0,0.421875 -0.609375,2.703125 -1.765625,2.703125 -0.515625,0 -0.75,-0.34375 -0.75,-0.875 0,-0.546875 0.28125,-1.28125 0.578125,-2.109375 0.078125,-0.171875 0.125,-0.3125 0.125,-0.5 0,-0.4375 -0.3125,-0.8125 -0.8125,-0.8125 -0.9375,0 -1.3125,1.453125 -1.3125,1.53125 0,0.109375 0.09375,0.109375 0.109375,0.109375 0.109375,0 0.109375,-0.03125 0.15625,-0.1875 0.296875,-1 0.71875,-1.234375 1.015625,-1.234375 0.078125,0 0.25,0 0.25,0.3125 0,0.25 -0.109375,0.53125 -0.171875,0.703125 -0.4375,1.15625 -0.5625,1.609375 -0.5625,2.046875 0,1.078125 0.875,1.234375 1.328125,1.234375 1.671875,0 2.25,-3.296875 2.25,-3.8125 z m 0,0"
           id="path4669" />
      </symbol>
      <symbol
         overflow="visible"
         id="symbol9649">
        <path
           style="stroke:none"
           d=""
           id="path6963" />
      </symbol>
      <symbol
         overflow="visible"
         id="symbol3685">
        <path
           style="stroke:none"
           d="m 2.328125,-4.4375 c 0,-0.1875 0,-0.1875 -0.203125,-0.1875 -0.453125,0.4375 -1.078125,0.4375 -1.359375,0.4375 v 0.25 c 0.15625,0 0.625,0 1,-0.1875 v 3.546875 c 0,0.234375 0,0.328125 -0.6875,0.328125 H 0.8125 V 0 c 0.125,0 0.984375,-0.03125 1.234375,-0.03125 0.21875,0 1.09375,0.03125 1.25,0.03125 V -0.25 H 3.03125 c -0.703125,0 -0.703125,-0.09375 -0.703125,-0.328125 z m 0,0"
           id="path2868" />
      </symbol>
    </g>
  </defs>
  <g
     id="layer1"
     transform="translate(-6.6574299,-76.790391)">
    <path
       style="fill:#a6f5ff;stroke:#00adee;stroke-width:3;stroke-linecap:butt;stroke-linejoin:miter;stroke-miterlimit:4;stroke-dasharray:none;stroke-opacity:1"
       d="M 178.81572,147.62406 Z"
       id="path134732" />
    <path
       style="fill:#a6f5ff;stroke:#00adee;stroke-width:3;stroke-linecap:round;stroke-linejoin:round;stroke-miterlimit:4;stroke-dasharray:none;stroke-opacity:1"
       d="M 24.350364,158.13103 C 74.428941,57.887086 156.7,84.063636 180.16132,156.78404"
       id="path134734" />
    <path
       style="fill:#a6f5ff;stroke:#00adee;stroke-width:3;stroke-linecap:round;stroke-linejoin:round;stroke-miterlimit:4;stroke-dasharray:none;stroke-opacity:1"
       d="m 24.350364,158.13103 c 45.561968,61.90523 95.451216,81.48522 155.810956,-1.34699"
       id="path134883" />
    <rect
       style="fill:#00adee;stroke:none;stroke-width:3;stroke-linecap:round;stroke-linejoin:round;stroke-miterlimit:4;stroke-dasharray:none;paint-order:fill markers stroke"
       id="rect135192"
       width="33.096886"
       height="24.678263"
       x="90.190269"
       y="139.27899" />
    <path
       style="fill:none;stroke:#000000;stroke-width:2;stroke-linecap:butt;stroke-linejoin:miter;stroke-miterlimit:4;stroke-dasharray:2, 6;stroke-dashoffset:0;stroke-opacity:1;marker-end:url(#Arrow1Mend)"
       d="M 37.013337,155.63967 C 82.586502,84.850468 128.79885,84.886477 171.15381,154.65675"
       id="path135271" />
    <path
       style="fill:none;stroke:#000000;stroke-width:2;stroke-linecap:butt;stroke-linejoin:miter;stroke-miterlimit:4;stroke-dasharray:2, 6;stroke-dashoffset:0;stroke-opacity:1;marker-end:url(#Arrow1Mend-7)"
       d="m 167.87684,162.52247 c -50.41317,60.02921 -81.125902,50.7359 -128.679828,0.8286"
       id="path135271-4" />
    <g
       transform="matrix(1.8602543,0,0,1.8602543,-72.422349,38.786338)"
       id="g138026">
      <g
         id="g3225">
        <g
           style="fill:#000000;fill-opacity:1"
           id="g4319">
          <use
             xlink:href="#symbol3375"
             x="91.925003"
             y="81.962997"
             id="use6914"
             width="100%"
             height="100%" />
        </g>
        <g
           style="fill:#000000;fill-opacity:1"
           id="g3788">
          <use
             xlink:href="#symbol9079"
             x="97.665001"
             y="83.457001"
             id="use1904"
             width="100%"
             height="100%" />
        </g>
      </g>
    </g>
    <g
       transform="matrix(1.8617415,0,0,1.8617415,-76.730186,-30.231825)"
       id="g138133">
      <g
         id="g1302">
        <g
           style="fill:#000000;fill-opacity:1"
           id="g3364">
          <use
             xlink:href="#symbol193"
             x="91.925003"
             y="81.962997"
             id="use7852"
             width="100%"
             height="100%" />
        </g>
        <g
           style="fill:#000000;fill-opacity:1"
           id="g7394">
          <use
             xlink:href="#symbol995"
             x="97.665001"
             y="83.457001"
             id="use8023"
             width="100%"
             height="100%" />
        </g>
      </g>
    </g>
    <g
       transform="matrix(1.9059566,0,0,1.9059566,-74.275399,0.07901043)"
       id="g138264">
      <g
         id="g6470">
        <g
           style="fill:#000000;fill-opacity:1"
           id="g3756">
          <use
             xlink:href="#symbol4438"
             x="91.925003"
             y="81.962997"
             id="use8080"
             width="100%"
             height="100%" />
        </g>
      </g>
    </g>
    <g
       transform="matrix(2.0776925,0,0,2.0776925,-95.173073,-84.348681)"
       id="g138598">
      <g
         id="g6986">
        <g
           style="fill:#000000;fill-opacity:1"
           id="g4666">
          <use
             xlink:href="#symbol8139"
             x="91.925003"
             y="81.962997"
             id="use2226"
             width="100%"
             height="100%" />
        </g>
        <g
           style="fill:#000000;fill-opacity:1"
           id="g3675">
          <use
             xlink:href="#symbol45"
             x="96.564003"
             y="83.457001"
             id="use7618"
             width="100%"
             height="100%" />
        </g>
      </g>
    </g>
    <g
       transform="matrix(2.1356167,0,0,2.1356167,-105.32192,52.387784)"
       id="g138813">
      <g
         id="g5866">
        <g
           style="fill:#000000;fill-opacity:1"
           id="g278">
          <use
             xlink:href="#symbol5625"
             x="91.925003"
             y="81.962997"
             id="use9873"
             width="100%"
             height="100%" />
        </g>
        <g
           style="fill:#000000;fill-opacity:1"
           id="g1535">
          <use
             xlink:href="#symbol7802"
             x="96.564003"
             y="83.457001"
             id="use4314"
             width="100%"
             height="100%" />
        </g>
      </g>
    </g>
    <g
       transform="matrix(2.4301216,0,0,2.4301216,-47.091815,-17.717764)"
       id="g139058">
      <g
         id="g4747">
        <g
           style="fill:#000000;fill-opacity:1"
           id="g9547">
          <use
             xlink:href="#symbol125"
             x="91.925003"
             y="81.962997"
             id="use2157"
             width="100%"
             height="100%" />
        </g>
        <g
           style="fill:#000000;fill-opacity:1"
           id="g5512">
          <use
             xlink:href="#symbol6180"
             x="96.753998"
             y="83.457001"
             id="use6782"
             width="100%"
             height="100%" />
        </g>
      </g>
    </g>
    <g
       transform="matrix(2.1441577,0,0,2.1441577,-191.08082,-33.4389)"
       id="g139333">
      <g
         id="g7615">
        <g
           style="fill:#000000;fill-opacity:1"
           id="g8980">
          <use
             xlink:href="#symbol6826"
             x="91.925003"
             y="81.962997"
             id="use2174"
             width="100%"
             height="100%" />
        </g>
        <g
           style="fill:#000000;fill-opacity:1"
           id="g4609">
          <use
             xlink:href="#symbol3685"
             x="96.753998"
             y="83.457001"
             id="use3694"
             width="100%"
             height="100%" />
        </g>
      </g>
    </g>
    <circle
       style="font-variation-settings:normal;opacity:1;vector-effect:none;fill:#ff5337;fill-opacity:1;fill-rule:evenodd;stroke:none;stroke-width:0.264583px;stroke-linecap:butt;stroke-linejoin:miter;stroke-miterlimit:4;stroke-dasharray:none;stroke-dashoffset:0;stroke-opacity:1;-inkscape-stroke:none;stop-color:#000000;stop-opacity:1"
       id="path139392"
       cx="22.419281"
       cy="157.77882"
       r="7.8359823" />
    <circle
       style="font-variation-settings:normal;vector-effect:none;fill:#ff5337;fill-opacity:1;fill-rule:evenodd;stroke:none;stroke-width:0.264583px;stroke-linecap:butt;stroke-linejoin:miter;stroke-miterlimit:4;stroke-dasharray:none;stroke-dashoffset:0;stroke-opacity:1;-inkscape-stroke:none;stop-color:#000000"
       id="path139392-6"
       cx="181.82303"
       cy="155.45824"
       r="7.8359823" />
  </g>
</svg>
