<?xml version="1.0" encoding="UTF-8" standalone="no"?>
<!-- Created with Inkscape (http://www.inkscape.org/) -->

<svg
   width="220.91199mm"
   height="93.029999mm"
   viewBox="0 0 220.91199 93.029999"
   version="1.1"
   id="svg134581"
   sodipodi:docname="fixed_face.svg"
   inkscape:version="1.3.2 (091e20ef0f, 2023-11-25, custom)"
   xmlns:inkscape="http://www.inkscape.org/namespaces/inkscape"
   xmlns:sodipodi="http://sodipodi.sourceforge.net/DTD/sodipodi-0.dtd"
   xmlns:xlink="http://www.w3.org/1999/xlink"
   xmlns="http://www.w3.org/2000/svg"
   xmlns:svg="http://www.w3.org/2000/svg"
   xmlns:ns12="http://www.iki.fi/pav/software/textext/">
  <sodipodi:namedview
     id="namedview1"
     pagecolor="#ffffff"
     bordercolor="#000000"
     borderopacity="0.25"
     inkscape:showpageshadow="2"
     inkscape:pageopacity="0.0"
     inkscape:pagecheckerboard="0"
     inkscape:deskcolor="#d1d1d1"
     inkscape:document-units="mm"
     inkscape:zoom="1.0796867"
     inkscape:cx="425.12333"
     inkscape:cy="283.87865"
     inkscape:window-width="1850"
     inkscape:window-height="974"
     inkscape:window-x="1990"
     inkscape:window-y="32"
     inkscape:window-maximized="1"
     inkscape:current-layer="svg134581" />
  <defs
     id="defs134578">
    <marker
       style="overflow:visible"
       id="marker141046"
       refX="0"
       refY="0"
       orient="auto">
      <path
         transform="matrix(-0.4,0,0,-0.4,-4,0)"
         style="fill:context-stroke;fill-rule:evenodd;stroke:context-stroke;stroke-width:1pt"
         d="M 0,0 5,-5 -12.5,0 5,5 Z"
         id="path141044" />
    </marker>
    <marker
       style="overflow:visible"
       id="Arrow1Mend"
       refX="0"
       refY="0"
       orient="auto">
      <path
         transform="matrix(-0.4,0,0,-0.4,-4,0)"
         style="fill:context-stroke;fill-rule:evenodd;stroke:context-stroke;stroke-width:1pt"
         d="M 0,0 5,-5 -12.5,0 5,5 Z"
         id="path95064" />
    </marker>
    <marker
       style="overflow:visible"
       id="Arrow1Mend-7"
       refX="0"
       refY="0"
       orient="auto">
      <path
         transform="matrix(-0.4,0,0,-0.4,-4,0)"
         style="fill:context-stroke;fill-rule:evenodd;stroke:context-stroke;stroke-width:1pt"
         d="M 0,0 5,-5 -12.5,0 5,5 Z"
         id="path95064-1" />
    </marker>
    <g
       id="g5557">
      <symbol
         overflow="visible"
         id="symbol3644">
        <path
           style="stroke:none"
           d=""
           id="path4933" />
      </symbol>
      <symbol
         overflow="visible"
         id="symbol3375">
        <path
           style="stroke:none"
           d="m 2.859375,-6.8125 c 0,0 0,-0.109375 -0.125,-0.109375 -0.234375,0 -0.953125,0.078125 -1.21875,0.109375 -0.078125,0 -0.1875,0.015625 -0.1875,0.1875 0,0.125 0.09375,0.125 0.234375,0.125 0.484375,0 0.5,0.0625 0.5,0.171875 L 2.03125,-6.125 0.59375,-0.390625 c -0.046875,0.140625 -0.046875,0.15625 -0.046875,0.21875 0,0.234375 0.203125,0.28125 0.296875,0.28125 0.15625,0 0.3125,-0.125 0.359375,-0.265625 l 0.1875,-0.75 0.21875,-0.890625 C 1.671875,-2.03125 1.734375,-2.25 1.78125,-2.46875 1.796875,-2.53125 1.890625,-2.859375 1.890625,-2.921875 1.921875,-3.015625 2.234375,-3.5625 2.578125,-3.84375 2.796875,-4 3.09375,-4.1875 3.53125,-4.1875 c 0.421875,0 0.53125,0.34375 0.53125,0.703125 0,0.53125 -0.375,1.625 -0.609375,2.234375 C 3.375,-1.03125 3.3125,-0.90625 3.3125,-0.703125 c 0,0.46875 0.359375,0.8125 0.828125,0.8125 0.9375,0 1.296875,-1.453125 1.296875,-1.53125 0,-0.109375 -0.078125,-0.109375 -0.109375,-0.109375 -0.109375,0 -0.109375,0.03125 -0.15625,0.1875 -0.140625,0.53125 -0.46875,1.234375 -1.015625,1.234375 -0.171875,0 -0.234375,-0.09375 -0.234375,-0.328125 0,-0.25 0.078125,-0.484375 0.171875,-0.703125 0.15625,-0.4375 0.609375,-1.625 0.609375,-2.203125 0,-0.640625 -0.390625,-1.0625 -1.140625,-1.0625 -0.625,0 -1.109375,0.3125 -1.484375,0.765625 z m 0,0"
           id="path1909" />
      </symbol>
      <symbol
         overflow="visible"
         id="symbol5652">
        <path
           style="stroke:none"
           d=""
           id="path4343" />
      </symbol>
      <symbol
         overflow="visible"
         id="symbol9079">
        <path
           style="stroke:none"
           d="m 2.328125,-4.4375 c 0,-0.1875 0,-0.1875 -0.203125,-0.1875 -0.453125,0.4375 -1.078125,0.4375 -1.359375,0.4375 v 0.25 c 0.15625,0 0.625,0 1,-0.1875 v 3.546875 c 0,0.234375 0,0.328125 -0.6875,0.328125 H 0.8125 V 0 c 0.125,0 0.984375,-0.03125 1.234375,-0.03125 0.21875,0 1.09375,0.03125 1.25,0.03125 V -0.25 H 3.03125 c -0.703125,0 -0.703125,-0.09375 -0.703125,-0.328125 z m 0,0"
           id="path7874" />
      </symbol>
    </g>
    <g
       id="g5153">
      <symbol
         overflow="visible"
         id="symbol5024">
        <path
           style="stroke:none"
           d=""
           id="path8244" />
      </symbol>
      <symbol
         overflow="visible"
         id="symbol193">
        <path
           style="stroke:none"
           d="m 2.859375,-6.8125 c 0,0 0,-0.109375 -0.125,-0.109375 -0.234375,0 -0.953125,0.078125 -1.21875,0.109375 -0.078125,0 -0.1875,0.015625 -0.1875,0.1875 0,0.125 0.09375,0.125 0.234375,0.125 0.484375,0 0.5,0.0625 0.5,0.171875 L 2.03125,-6.125 0.59375,-0.390625 c -0.046875,0.140625 -0.046875,0.15625 -0.046875,0.21875 0,0.234375 0.203125,0.28125 0.296875,0.28125 0.15625,0 0.3125,-0.125 0.359375,-0.265625 l 0.1875,-0.75 0.21875,-0.890625 C 1.671875,-2.03125 1.734375,-2.25 1.78125,-2.46875 1.796875,-2.53125 1.890625,-2.859375 1.890625,-2.921875 1.921875,-3.015625 2.234375,-3.5625 2.578125,-3.84375 2.796875,-4 3.09375,-4.1875 3.53125,-4.1875 c 0.421875,0 0.53125,0.34375 0.53125,0.703125 0,0.53125 -0.375,1.625 -0.609375,2.234375 C 3.375,-1.03125 3.3125,-0.90625 3.3125,-0.703125 c 0,0.46875 0.359375,0.8125 0.828125,0.8125 0.9375,0 1.296875,-1.453125 1.296875,-1.53125 0,-0.109375 -0.078125,-0.109375 -0.109375,-0.109375 -0.109375,0 -0.109375,0.03125 -0.15625,0.1875 -0.140625,0.53125 -0.46875,1.234375 -1.015625,1.234375 -0.171875,0 -0.234375,-0.09375 -0.234375,-0.328125 0,-0.25 0.078125,-0.484375 0.171875,-0.703125 0.15625,-0.4375 0.609375,-1.625 0.609375,-2.203125 0,-0.640625 -0.390625,-1.0625 -1.140625,-1.0625 -0.625,0 -1.109375,0.3125 -1.484375,0.765625 z m 0,0"
           id="path6235" />
      </symbol>
      <symbol
         overflow="visible"
         id="symbol8212">
        <path
           style="stroke:none"
           d=""
           id="path1817" />
      </symbol>
      <symbol
         overflow="visible"
         id="symbol995">
        <path
           style="stroke:none"
           d="M 3.515625,-1.265625 H 3.28125 c -0.015625,0.15625 -0.09375,0.5625 -0.1875,0.625 C 3.046875,-0.59375 2.515625,-0.59375 2.40625,-0.59375 H 1.125 c 0.734375,-0.640625 0.984375,-0.84375 1.390625,-1.171875 0.515625,-0.40625 1,-0.84375 1,-1.5 0,-0.84375 -0.734375,-1.359375 -1.625,-1.359375 -0.859375,0 -1.453125,0.609375 -1.453125,1.25 0,0.34375 0.296875,0.390625 0.375,0.390625 0.15625,0 0.359375,-0.125 0.359375,-0.375 0,-0.125 -0.046875,-0.375 -0.40625,-0.375 C 0.984375,-4.21875 1.453125,-4.375 1.78125,-4.375 c 0.703125,0 1.0625,0.546875 1.0625,1.109375 0,0.609375 -0.4375,1.078125 -0.65625,1.328125 L 0.515625,-0.265625 C 0.4375,-0.203125 0.4375,-0.1875 0.4375,0 h 2.875 z m 0,0"
           id="path3259" />
      </symbol>
    </g>
    <g
       id="g2073">
      <symbol
         overflow="visible"
         id="symbol4872">
        <path
           style="stroke:none"
           d=""
           id="path2680" />
      </symbol>
      <symbol
         overflow="visible"
         id="symbol4438">
        <path
           style="stroke:none"
           d="m 3.65625,-3.984375 h 0.859375 c 0.203125,0 0.296875,0 0.296875,-0.203125 0,-0.109375 -0.09375,-0.109375 -0.265625,-0.109375 H 3.71875 L 3.921875,-5.4375 c 0.046875,-0.203125 0.1875,-0.90625 0.25,-1.03125 0.078125,-0.1875 0.25,-0.34375 0.46875,-0.34375 0.03125,0 0.296875,0 0.484375,0.1875 -0.4375,0.03125 -0.546875,0.390625 -0.546875,0.53125 0,0.234375 0.1875,0.359375 0.375,0.359375 C 5.21875,-5.734375 5.5,-5.96875 5.5,-6.34375 c 0,-0.453125 -0.453125,-0.6875 -0.859375,-0.6875 -0.34375,0 -0.96875,0.1875 -1.265625,1.171875 -0.0625,0.203125 -0.09375,0.3125 -0.328125,1.5625 h -0.6875 c -0.203125,0 -0.3125,0 -0.3125,0.1875 0,0.125 0.09375,0.125 0.28125,0.125 h 0.65625 L 2.25,-0.046875 c -0.1875,0.96875 -0.359375,1.875 -0.875,1.875 -0.046875,0 -0.28125,0 -0.484375,-0.1875 C 1.359375,1.609375 1.453125,1.25 1.453125,1.109375 1.453125,0.875 1.265625,0.75 1.078125,0.75 0.8125,0.75 0.53125,0.984375 0.53125,1.359375 c 0,0.4375 0.4375,0.6875 0.84375,0.6875 0.546875,0 0.953125,-0.59375 1.125,-0.96875 0.328125,-0.625 0.546875,-1.828125 0.5625,-1.90625 z m 0,0"
           id="path8629" />
      </symbol>
    </g>
    <g
       id="g2513">
      <symbol
         overflow="visible"
         id="symbol6118">
        <path
           style="stroke:none"
           d=""
           id="path3969" />
      </symbol>
      <symbol
         overflow="visible"
         id="symbol8883">
        <path
           style="stroke:none"
           d="m 1.859375,-2.296875 c 0.296875,0 1.03125,-0.03125 1.53125,-0.234375 0.703125,-0.296875 0.75,-0.890625 0.75,-1.03125 0,-0.4375 -0.375,-0.84375 -1.0625,-0.84375 -1.109375,0 -2.625,0.96875 -2.625,2.71875 0,1.015625 0.59375,1.796875 1.578125,1.796875 1.421875,0 2.25,-1.0625 2.25,-1.171875 0,-0.0625 -0.046875,-0.140625 -0.109375,-0.140625 -0.0625,0 -0.078125,0.03125 -0.140625,0.109375 -0.78125,0.984375 -1.875,0.984375 -1.984375,0.984375 -0.78125,0 -0.875,-0.84375 -0.875,-1.15625 0,-0.125 0.015625,-0.421875 0.15625,-1.03125 z m -0.46875,-0.21875 C 1.78125,-4.03125 2.8125,-4.1875 3.078125,-4.1875 c 0.453125,0 0.734375,0.296875 0.734375,0.625 0,1.046875 -1.59375,1.046875 -2.015625,1.046875 z m 0,0"
           id="path3291" />
      </symbol>
      <symbol
         overflow="visible"
         id="symbol2038">
        <path
           style="stroke:none"
           d=""
           id="path8450" />
      </symbol>
      <symbol
         overflow="visible"
         id="symbol9320">
        <path
           style="stroke:none"
           d="m 2.9375,-6.375 c 0,-0.25 0,-0.265625 -0.234375,-0.265625 C 2.078125,-6 1.203125,-6 0.890625,-6 v 0.3125 c 0.203125,0 0.78125,0 1.296875,-0.265625 v 5.171875 c 0,0.359375 -0.03125,0.46875 -0.921875,0.46875 h -0.3125 V 0 c 0.34375,-0.03125 1.203125,-0.03125 1.609375,-0.03125 0.390625,0 1.265625,0 1.609375,0.03125 v -0.3125 h -0.3125 c -0.90625,0 -0.921875,-0.109375 -0.921875,-0.46875 z m 0,0"
           id="path9542" />
      </symbol>
    </g>
    <g
       id="g1753">
      <symbol
         overflow="visible"
         id="symbol8491">
        <path
           style="stroke:none"
           d=""
           id="path5659" />
      </symbol>
      <symbol
         overflow="visible"
         id="symbol8139">
        <path
           style="stroke:none"
           d="m 1.859375,-2.296875 c 0.296875,0 1.03125,-0.03125 1.53125,-0.234375 0.703125,-0.296875 0.75,-0.890625 0.75,-1.03125 0,-0.4375 -0.375,-0.84375 -1.0625,-0.84375 -1.109375,0 -2.625,0.96875 -2.625,2.71875 0,1.015625 0.59375,1.796875 1.578125,1.796875 1.421875,0 2.25,-1.0625 2.25,-1.171875 0,-0.0625 -0.046875,-0.140625 -0.109375,-0.140625 -0.0625,0 -0.078125,0.03125 -0.140625,0.109375 -0.78125,0.984375 -1.875,0.984375 -1.984375,0.984375 -0.78125,0 -0.875,-0.84375 -0.875,-1.15625 0,-0.125 0.015625,-0.421875 0.15625,-1.03125 z m -0.46875,-0.21875 C 1.78125,-4.03125 2.8125,-4.1875 3.078125,-4.1875 c 0.453125,0 0.734375,0.296875 0.734375,0.625 0,1.046875 -1.59375,1.046875 -2.015625,1.046875 z m 0,0"
           id="path2176" />
      </symbol>
      <symbol
         overflow="visible"
         id="symbol5046">
        <path
           style="stroke:none"
           d=""
           id="path5972" />
      </symbol>
      <symbol
         overflow="visible"
         id="symbol45">
        <path
           style="stroke:none"
           d="m 2.328125,-4.4375 c 0,-0.1875 0,-0.1875 -0.203125,-0.1875 -0.453125,0.4375 -1.078125,0.4375 -1.359375,0.4375 v 0.25 c 0.15625,0 0.625,0 1,-0.1875 v 3.546875 c 0,0.234375 0,0.328125 -0.6875,0.328125 H 0.8125 V 0 c 0.125,0 0.984375,-0.03125 1.234375,-0.03125 0.21875,0 1.09375,0.03125 1.25,0.03125 V -0.25 H 3.03125 c -0.703125,0 -0.703125,-0.09375 -0.703125,-0.328125 z m 0,0"
           id="path6351" />
      </symbol>
    </g>
    <g
       id="g4344">
      <symbol
         overflow="visible"
         id="symbol9264">
        <path
           style="stroke:none"
           d=""
           id="path16" />
      </symbol>
      <symbol
         overflow="visible"
         id="symbol5625">
        <path
           style="stroke:none"
           d="m 1.859375,-2.296875 c 0.296875,0 1.03125,-0.03125 1.53125,-0.234375 0.703125,-0.296875 0.75,-0.890625 0.75,-1.03125 0,-0.4375 -0.375,-0.84375 -1.0625,-0.84375 -1.109375,0 -2.625,0.96875 -2.625,2.71875 0,1.015625 0.59375,1.796875 1.578125,1.796875 1.421875,0 2.25,-1.0625 2.25,-1.171875 0,-0.0625 -0.046875,-0.140625 -0.109375,-0.140625 -0.0625,0 -0.078125,0.03125 -0.140625,0.109375 -0.78125,0.984375 -1.875,0.984375 -1.984375,0.984375 -0.78125,0 -0.875,-0.84375 -0.875,-1.15625 0,-0.125 0.015625,-0.421875 0.15625,-1.03125 z m -0.46875,-0.21875 C 1.78125,-4.03125 2.8125,-4.1875 3.078125,-4.1875 c 0.453125,0 0.734375,0.296875 0.734375,0.625 0,1.046875 -1.59375,1.046875 -2.015625,1.046875 z m 0,0"
           id="path9740" />
      </symbol>
      <symbol
         overflow="visible"
         id="symbol4524">
        <path
           style="stroke:none"
           d=""
           id="path8677" />
      </symbol>
      <symbol
         overflow="visible"
         id="symbol7802">
        <path
           style="stroke:none"
           d="M 3.515625,-1.265625 H 3.28125 c -0.015625,0.15625 -0.09375,0.5625 -0.1875,0.625 C 3.046875,-0.59375 2.515625,-0.59375 2.40625,-0.59375 H 1.125 c 0.734375,-0.640625 0.984375,-0.84375 1.390625,-1.171875 0.515625,-0.40625 1,-0.84375 1,-1.5 0,-0.84375 -0.734375,-1.359375 -1.625,-1.359375 -0.859375,0 -1.453125,0.609375 -1.453125,1.25 0,0.34375 0.296875,0.390625 0.375,0.390625 0.15625,0 0.359375,-0.125 0.359375,-0.375 0,-0.125 -0.046875,-0.375 -0.40625,-0.375 C 0.984375,-4.21875 1.453125,-4.375 1.78125,-4.375 c 0.703125,0 1.0625,0.546875 1.0625,1.109375 0,0.609375 -0.4375,1.078125 -0.65625,1.328125 L 0.515625,-0.265625 C 0.4375,-0.203125 0.4375,-0.1875 0.4375,0 h 2.875 z m 0,0"
           id="path285" />
      </symbol>
    </g>
    <g
       id="g9784">
      <symbol
         overflow="visible"
         id="symbol1828">
        <path
           style="stroke:none"
           d=""
           id="path3626" />
      </symbol>
      <symbol
         overflow="visible"
         id="symbol125">
        <path
           style="stroke:none"
           d="m 4.671875,-3.703125 c 0,-0.546875 -0.265625,-0.703125 -0.4375,-0.703125 -0.25,0 -0.5,0.265625 -0.5,0.484375 0,0.125 0.046875,0.1875 0.15625,0.296875 0.21875,0.203125 0.34375,0.453125 0.34375,0.8125 0,0.421875 -0.609375,2.703125 -1.765625,2.703125 -0.515625,0 -0.75,-0.34375 -0.75,-0.875 0,-0.546875 0.28125,-1.28125 0.578125,-2.109375 0.078125,-0.171875 0.125,-0.3125 0.125,-0.5 0,-0.4375 -0.3125,-0.8125 -0.8125,-0.8125 -0.9375,0 -1.3125,1.453125 -1.3125,1.53125 0,0.109375 0.09375,0.109375 0.109375,0.109375 0.109375,0 0.109375,-0.03125 0.15625,-0.1875 0.296875,-1 0.71875,-1.234375 1.015625,-1.234375 0.078125,0 0.25,0 0.25,0.3125 0,0.25 -0.109375,0.53125 -0.171875,0.703125 -0.4375,1.15625 -0.5625,1.609375 -0.5625,2.046875 0,1.078125 0.875,1.234375 1.328125,1.234375 1.671875,0 2.25,-3.296875 2.25,-3.8125 z m 0,0"
           id="path7418" />
      </symbol>
      <symbol
         overflow="visible"
         id="symbol2463">
        <path
           style="stroke:none"
           d=""
           id="path188" />
      </symbol>
      <symbol
         overflow="visible"
         id="symbol6180">
        <path
           style="stroke:none"
           d="M 3.515625,-1.265625 H 3.28125 c -0.015625,0.15625 -0.09375,0.5625 -0.1875,0.625 C 3.046875,-0.59375 2.515625,-0.59375 2.40625,-0.59375 H 1.125 c 0.734375,-0.640625 0.984375,-0.84375 1.390625,-1.171875 0.515625,-0.40625 1,-0.84375 1,-1.5 0,-0.84375 -0.734375,-1.359375 -1.625,-1.359375 -0.859375,0 -1.453125,0.609375 -1.453125,1.25 0,0.34375 0.296875,0.390625 0.375,0.390625 0.15625,0 0.359375,-0.125 0.359375,-0.375 0,-0.125 -0.046875,-0.375 -0.40625,-0.375 C 0.984375,-4.21875 1.453125,-4.375 1.78125,-4.375 c 0.703125,0 1.0625,0.546875 1.0625,1.109375 0,0.609375 -0.4375,1.078125 -0.65625,1.328125 L 0.515625,-0.265625 C 0.4375,-0.203125 0.4375,-0.1875 0.4375,0 h 2.875 z m 0,0"
           id="path5673" />
      </symbol>
    </g>
    <g
       id="g2555">
      <symbol
         overflow="visible"
         id="symbol4056">
        <path
           style="stroke:none"
           d=""
           id="path2081" />
      </symbol>
      <symbol
         overflow="visible"
         id="symbol6826">
        <path
           style="stroke:none"
           d="m 4.671875,-3.703125 c 0,-0.546875 -0.265625,-0.703125 -0.4375,-0.703125 -0.25,0 -0.5,0.265625 -0.5,0.484375 0,0.125 0.046875,0.1875 0.15625,0.296875 0.21875,0.203125 0.34375,0.453125 0.34375,0.8125 0,0.421875 -0.609375,2.703125 -1.765625,2.703125 -0.515625,0 -0.75,-0.34375 -0.75,-0.875 0,-0.546875 0.28125,-1.28125 0.578125,-2.109375 0.078125,-0.171875 0.125,-0.3125 0.125,-0.5 0,-0.4375 -0.3125,-0.8125 -0.8125,-0.8125 -0.9375,0 -1.3125,1.453125 -1.3125,1.53125 0,0.109375 0.09375,0.109375 0.109375,0.109375 0.109375,0 0.109375,-0.03125 0.15625,-0.1875 0.296875,-1 0.71875,-1.234375 1.015625,-1.234375 0.078125,0 0.25,0 0.25,0.3125 0,0.25 -0.109375,0.53125 -0.171875,0.703125 -0.4375,1.15625 -0.5625,1.609375 -0.5625,2.046875 0,1.078125 0.875,1.234375 1.328125,1.234375 1.671875,0 2.25,-3.296875 2.25,-3.8125 z m 0,0"
           id="path4669" />
      </symbol>
      <symbol
         overflow="visible"
         id="symbol9649">
        <path
           style="stroke:none"
           d=""
           id="path6963" />
      </symbol>
      <symbol
         overflow="visible"
         id="symbol3685">
        <path
           style="stroke:none"
           d="m 2.328125,-4.4375 c 0,-0.1875 0,-0.1875 -0.203125,-0.1875 -0.453125,0.4375 -1.078125,0.4375 -1.359375,0.4375 v 0.25 c 0.15625,0 0.625,0 1,-0.1875 v 3.546875 c 0,0.234375 0,0.328125 -0.6875,0.328125 H 0.8125 V 0 c 0.125,0 0.984375,-0.03125 1.234375,-0.03125 0.21875,0 1.09375,0.03125 1.25,0.03125 V -0.25 H 3.03125 c -0.703125,0 -0.703125,-0.09375 -0.703125,-0.328125 z m 0,0"
           id="path2868" />
      </symbol>
    </g>
    <g
       id="g8485">
      <symbol
         overflow="visible"
         id="symbol2961">
        <path
           style="stroke:none"
           d=""
           id="path4273" />
      </symbol>
      <symbol
         overflow="visible"
         id="symbol6250">
        <path
           style="stroke:none"
           d="m 2.859375,-6.8125 c 0,0 0,-0.109375 -0.125,-0.109375 -0.234375,0 -0.953125,0.078125 -1.21875,0.109375 -0.078125,0 -0.1875,0.015625 -0.1875,0.1875 0,0.125 0.09375,0.125 0.234375,0.125 0.484375,0 0.5,0.0625 0.5,0.171875 L 2.03125,-6.125 0.59375,-0.390625 c -0.046875,0.140625 -0.046875,0.15625 -0.046875,0.21875 0,0.234375 0.203125,0.28125 0.296875,0.28125 0.15625,0 0.3125,-0.125 0.359375,-0.265625 l 0.1875,-0.75 0.21875,-0.890625 C 1.671875,-2.03125 1.734375,-2.25 1.78125,-2.46875 1.796875,-2.53125 1.890625,-2.859375 1.890625,-2.921875 1.921875,-3.015625 2.234375,-3.5625 2.578125,-3.84375 2.796875,-4 3.09375,-4.1875 3.53125,-4.1875 c 0.421875,0 0.53125,0.34375 0.53125,0.703125 0,0.53125 -0.375,1.625 -0.609375,2.234375 C 3.375,-1.03125 3.3125,-0.90625 3.3125,-0.703125 c 0,0.46875 0.359375,0.8125 0.828125,0.8125 0.9375,0 1.296875,-1.453125 1.296875,-1.53125 0,-0.109375 -0.078125,-0.109375 -0.109375,-0.109375 -0.109375,0 -0.109375,0.03125 -0.15625,0.1875 -0.140625,0.53125 -0.46875,1.234375 -1.015625,1.234375 -0.171875,0 -0.234375,-0.09375 -0.234375,-0.328125 0,-0.25 0.078125,-0.484375 0.171875,-0.703125 0.15625,-0.4375 0.609375,-1.625 0.609375,-2.203125 0,-0.640625 -0.390625,-1.0625 -1.140625,-1.0625 -0.625,0 -1.109375,0.3125 -1.484375,0.765625 z m 0,0"
           id="path2755" />
      </symbol>
      <symbol
         overflow="visible"
         id="symbol850">
        <path
           style="stroke:none"
           d=""
           id="path8237" />
      </symbol>
      <symbol
         overflow="visible"
         id="symbol9455">
        <path
           style="stroke:none"
           d="m 2.328125,-4.4375 c 0,-0.1875 0,-0.1875 -0.203125,-0.1875 -0.453125,0.4375 -1.078125,0.4375 -1.359375,0.4375 v 0.25 c 0.15625,0 0.625,0 1,-0.1875 v 3.546875 c 0,0.234375 0,0.328125 -0.6875,0.328125 H 0.8125 V 0 c 0.125,0 0.984375,-0.03125 1.234375,-0.03125 0.21875,0 1.09375,0.03125 1.25,0.03125 V -0.25 H 3.03125 c -0.703125,0 -0.703125,-0.09375 -0.703125,-0.328125 z m 0,0"
           id="path2885" />
      </symbol>
      <symbol
         overflow="visible"
         id="symbol9527">
        <path
           style="stroke:none"
           d="M 3.515625,-1.265625 H 3.28125 c -0.015625,0.15625 -0.09375,0.5625 -0.1875,0.625 C 3.046875,-0.59375 2.515625,-0.59375 2.40625,-0.59375 H 1.125 c 0.734375,-0.640625 0.984375,-0.84375 1.390625,-1.171875 0.515625,-0.40625 1,-0.84375 1,-1.5 0,-0.84375 -0.734375,-1.359375 -1.625,-1.359375 -0.859375,0 -1.453125,0.609375 -1.453125,1.25 0,0.34375 0.296875,0.390625 0.375,0.390625 0.15625,0 0.359375,-0.125 0.359375,-0.375 0,-0.125 -0.046875,-0.375 -0.40625,-0.375 C 0.984375,-4.21875 1.453125,-4.375 1.78125,-4.375 c 0.703125,0 1.0625,0.546875 1.0625,1.109375 0,0.609375 -0.4375,1.078125 -0.65625,1.328125 L 0.515625,-0.265625 C 0.4375,-0.203125 0.4375,-0.1875 0.4375,0 h 2.875 z m 0,0"
           id="path9145" />
      </symbol>
      <symbol
         overflow="visible"
         id="symbol6547">
        <path
           style="stroke:none"
           d=""
           id="path2876" />
      </symbol>
      <symbol
         overflow="visible"
         id="symbol6429">
        <path
           style="stroke:none"
           d="M 1.484375,-0.8125 C 1.5,-0.890625 1.546875,-1.078125 1.5625,-1.15625 1.578125,-1.234375 1.609375,-1.3125 1.625,-1.375 1.640625,-1.453125 1.796875,-1.71875 1.96875,-1.859375 2.140625,-2 2.296875,-2.03125 2.46875,-2.03125 c 0.0625,0 0.296875,0 0.46875,0.078125 -0.21875,0.078125 -0.21875,0.28125 -0.21875,0.296875 0,0.078125 0.0625,0.203125 0.21875,0.203125 0.140625,0 0.3125,-0.125 0.3125,-0.34375 0,-0.359375 -0.53125,-0.40625 -0.765625,-0.40625 -0.125,0 -0.453125,0 -0.796875,0.390625 -0.0625,-0.265625 -0.359375,-0.390625 -0.59375,-0.390625 -0.171875,0 -0.3125,0.078125 -0.453125,0.28125 -0.125,0.203125 -0.1875,0.46875 -0.1875,0.484375 0,0.078125 0.078125,0.078125 0.109375,0.078125 0.078125,0 0.078125,-0.015625 0.125,-0.140625 0.078125,-0.296875 0.1875,-0.53125 0.375,-0.53125 0.171875,0 0.203125,0.15625 0.203125,0.265625 0,0.0625 -0.046875,0.25 -0.078125,0.390625 -0.03125,0.125 -0.078125,0.328125 -0.109375,0.4375 L 0.96875,-0.484375 C 0.9375,-0.359375 0.875,-0.140625 0.875,-0.125 c 0,0.109375 0.09375,0.1875 0.1875,0.1875 0.078125,0 0.171875,-0.046875 0.21875,-0.140625 C 1.3125,-0.109375 1.34375,-0.28125 1.375,-0.375 Z m 0,0"
           id="path8548" />
      </symbol>
      <symbol
         overflow="visible"
         id="symbol5514">
        <path
           style="stroke:none"
           d=""
           id="path7405" />
      </symbol>
      <symbol
         overflow="visible"
         id="symbol1616">
        <path
           style="stroke:none"
           d="m 6.09375,-5.609375 c 0,-0.171875 0,-0.359375 -0.203125,-0.359375 -0.203125,0 -0.203125,0.1875 -0.203125,0.359375 V -2 c 0,1.5 -1.625,1.828125 -2.375,1.828125 -0.4375,0 -1.0625,-0.09375 -1.59375,-0.4375 C 0.953125,-1.09375 0.953125,-1.734375 0.953125,-2 v -3.609375 c 0,-0.171875 0,-0.359375 -0.203125,-0.359375 -0.203125,0 -0.203125,0.1875 -0.203125,0.359375 v 3.65625 c 0,1.515625 1.53125,2.171875 2.765625,2.171875 1.296875,0 2.78125,-0.703125 2.78125,-2.15625 z m 0,0"
           id="path4629" />
      </symbol>
    </g>
  </defs>
  <path
     style="fill:#a6f5ff;stroke:#00adee;stroke-width:3;stroke-linecap:butt;stroke-linejoin:miter;stroke-miterlimit:4;stroke-dasharray:none;stroke-opacity:1"
     d="M 187.51489,69.039238 Z"
     id="path134732" />
  <path
     style="fill:none;stroke:#00adee;stroke-width:3;stroke-linecap:round;stroke-linejoin:round;stroke-miterlimit:4;stroke-dasharray:none;stroke-opacity:1"
     d="M 33.049534,79.546208 C 83.128111,-20.697736 165.39917,5.4788135 188.86049,78.199218"
     id="path134734" />
  <g
     transform="matrix(2.0776925,0,0,2.0776925,-67.54918,-161.13907)"
     id="g138598">
    <g
       id="g6986">
      <g
         style="fill:#000000;fill-opacity:1"
         id="g4666">
        <use
           xlink:href="#symbol8139"
           x="91.925003"
           y="81.962997"
           id="use2226"
           width="100%"
           height="100%" />
      </g>
      <g
         style="fill:#000000;fill-opacity:1"
         id="g3675">
        <use
           xlink:href="#symbol45"
           x="96.564003"
           y="83.457001"
           id="use7618"
           width="100%"
           height="100%" />
      </g>
    </g>
  </g>
  <g
     transform="matrix(2.4301216,0,0,2.4301216,-222.82616,-117.82769)"
     id="g139058">
    <g
       id="g4747">
      <g
         style="fill:#000000;fill-opacity:1"
         id="g9547">
        <use
           xlink:href="#symbol125"
           x="91.925003"
           y="81.962997"
           id="use2157"
           width="100%"
           height="100%" />
      </g>
      <g
         style="fill:#000000;fill-opacity:1"
         id="g5512">
        <use
           xlink:href="#symbol6180"
           x="96.753998"
           y="83.457001"
           id="use6782"
           width="100%"
           height="100%" />
      </g>
    </g>
  </g>
  <g
     transform="matrix(2.1441577,0,0,2.1441577,6.8243526,-94.631274)"
     id="g139333">
    <g
       id="g7615">
      <g
         style="fill:#000000;fill-opacity:1"
         id="g8980">
        <use
           xlink:href="#symbol6826"
           x="91.925003"
           y="81.962997"
           id="use2174"
           width="100%"
           height="100%" />
      </g>
      <g
         style="fill:#000000;fill-opacity:1"
         id="g4609">
        <use
           xlink:href="#symbol3685"
           x="96.753998"
           y="83.457001"
           id="use3694"
           width="100%"
           height="100%" />
      </g>
    </g>
  </g>
  <circle
     style="font-variation-settings:normal;vector-effect:none;fill:#ff5337;fill-opacity:1;fill-rule:evenodd;stroke:none;stroke-width:0.264583px;stroke-linecap:butt;stroke-linejoin:miter;stroke-miterlimit:4;stroke-dasharray:none;stroke-dashoffset:0;stroke-opacity:1;-inkscape-stroke:none;stop-color:#000000"
     id="path139392"
     cx="31.118452"
     cy="79.194"
     r="7.8359823" />
  <circle
     style="font-variation-settings:normal;vector-effect:none;fill:#ff5337;fill-opacity:1;fill-rule:evenodd;stroke:none;stroke-width:0.264583px;stroke-linecap:butt;stroke-linejoin:miter;stroke-miterlimit:4;stroke-dasharray:none;stroke-dashoffset:0;stroke-opacity:1;-inkscape-stroke:none;stop-color:#000000"
     id="path139392-6"
     cx="190.5222"
     cy="76.873413"
     r="7.8359823" />
  <path
     style="fill:none;stroke:#000000;stroke-width:2;stroke-linecap:butt;stroke-linejoin:miter;stroke-miterlimit:4;stroke-dasharray:2, 4;stroke-dashoffset:0;stroke-opacity:1;marker-end:url(#marker141046)"
     d="M 96.738205,9.6214475 C 63.169874,15.426518 108.90063,63.724228 114.54246,20.133466"
     id="path140536" />
  <g
     transform="matrix(1.4566759,0,0,1.4566759,54.413606,53.740285)"
     ns12:version="1.10.2"
     ns12:texconverter="pdflatex"
     ns12:pdfconverter="inkscape"
     ns12:text="$h_{1_r} \\cup h_{2_r} \\setminus \\{h_1, h_2\\}$"
     ns12:preamble="/usr/share/inkscape/extensions/textext/default_packages.tex"
     ns12:scale="5.0"
     ns12:alignment="middle center"
     ns12:stroke-to-path="0"
     ns12:inkscapeversion="1.3.2"
     id="g9932"
     ns12:jacobian_sqrt="1.76389">
    <defs
       id="id-1584a1ac-f6f2-45a2-8f89-949308e3ba9b">
      <g
         id="id-c2cbc8ea-d664-4612-bc70-25d539842883">
        <g
           id="id-a4e5c786-ad79-4f20-bdeb-9dd1b63a3973">
          <path
             d="m 2.859375,-6.8125 c 0,0 0,-0.109375 -0.125,-0.109375 -0.234375,0 -0.953125,0.078125 -1.21875,0.109375 -0.078125,0 -0.1875,0.015625 -0.1875,0.1875 0,0.125 0.09375,0.125 0.234375,0.125 0.484375,0 0.5,0.0625 0.5,0.171875 L 2.03125,-6.125 0.59375,-0.390625 c -0.046875,0.140625 -0.046875,0.15625 -0.046875,0.21875 0,0.234375 0.203125,0.28125 0.296875,0.28125 0.15625,0 0.3125,-0.125 0.359375,-0.265625 l 0.1875,-0.75 0.21875,-0.890625 C 1.671875,-2.03125 1.734375,-2.25 1.78125,-2.46875 1.796875,-2.53125 1.890625,-2.859375 1.890625,-2.921875 1.921875,-3.015625 2.234375,-3.5625 2.578125,-3.84375 2.796875,-4 3.09375,-4.1875 3.53125,-4.1875 c 0.421875,0 0.53125,0.34375 0.53125,0.703125 0,0.53125 -0.375,1.625 -0.609375,2.234375 C 3.375,-1.03125 3.3125,-0.90625 3.3125,-0.703125 c 0,0.46875 0.359375,0.8125 0.828125,0.8125 0.9375,0 1.296875,-1.453125 1.296875,-1.53125 0,-0.109375 -0.078125,-0.109375 -0.109375,-0.109375 -0.109375,0 -0.109375,0.03125 -0.15625,0.1875 -0.140625,0.53125 -0.46875,1.234375 -1.015625,1.234375 -0.171875,0 -0.234375,-0.09375 -0.234375,-0.328125 0,-0.25 0.078125,-0.484375 0.171875,-0.703125 0.15625,-0.4375 0.609375,-1.625 0.609375,-2.203125 0,-0.640625 -0.390625,-1.0625 -1.140625,-1.0625 -0.625,0 -1.109375,0.3125 -1.484375,0.765625 z m 0,0"
             id="id-b75014e3-2349-4b7e-b4cf-4d18a3d2bd5c" />
        </g>
        <g
           id="id-1cf8602d-7b5b-4191-b660-f9b083639ef6">
          <path
             d="m 2.03125,-0.015625 c 0,-0.65625 -0.25,-1.046875 -0.640625,-1.046875 -0.328125,0 -0.53125,0.25 -0.53125,0.53125 C 0.859375,-0.265625 1.0625,0 1.390625,0 1.5,0 1.640625,-0.046875 1.734375,-0.125 1.765625,-0.15625 1.78125,-0.15625 1.78125,-0.15625 c 0.015625,0 0.015625,0 0.015625,0.140625 0,0.75 -0.34375,1.34375 -0.671875,1.671875 -0.109375,0.109375 -0.109375,0.125 -0.109375,0.15625 0,0.078125 0.046875,0.109375 0.09375,0.109375 0.109375,0 0.921875,-0.765625 0.921875,-1.9375 z m 0,0"
             id="id-2f55ac76-0193-4321-a721-a06b835d0f3d" />
        </g>
        <g
           id="id-0b673beb-9d7e-4d01-b446-f2f953bcdc9f">
          <path
             d="m 2.328125,-4.4375 c 0,-0.1875 0,-0.1875 -0.203125,-0.1875 -0.453125,0.4375 -1.078125,0.4375 -1.359375,0.4375 v 0.25 c 0.15625,0 0.625,0 1,-0.1875 v 3.546875 c 0,0.234375 0,0.328125 -0.6875,0.328125 H 0.8125 V 0 c 0.125,0 0.984375,-0.03125 1.234375,-0.03125 0.21875,0 1.09375,0.03125 1.25,0.03125 V -0.25 H 3.03125 c -0.703125,0 -0.703125,-0.09375 -0.703125,-0.328125 z m 0,0"
             id="id-6d8d9747-967f-428f-8fd9-628928493c8f" />
        </g>
        <g
           id="id-8abe7a96-cb2e-4de5-be23-7d658f9c47f8">
          <path
             d="M 3.515625,-1.265625 H 3.28125 c -0.015625,0.15625 -0.09375,0.5625 -0.1875,0.625 C 3.046875,-0.59375 2.515625,-0.59375 2.40625,-0.59375 H 1.125 c 0.734375,-0.640625 0.984375,-0.84375 1.390625,-1.171875 0.515625,-0.40625 1,-0.84375 1,-1.5 0,-0.84375 -0.734375,-1.359375 -1.625,-1.359375 -0.859375,0 -1.453125,0.609375 -1.453125,1.25 0,0.34375 0.296875,0.390625 0.375,0.390625 0.15625,0 0.359375,-0.125 0.359375,-0.375 0,-0.125 -0.046875,-0.375 -0.40625,-0.375 C 0.984375,-4.21875 1.453125,-4.375 1.78125,-4.375 c 0.703125,0 1.0625,0.546875 1.0625,1.109375 0,0.609375 -0.4375,1.078125 -0.65625,1.328125 L 0.515625,-0.265625 C 0.4375,-0.203125 0.4375,-0.1875 0.4375,0 h 2.875 z m 0,0"
             id="id-7badb7b2-1e46-4b22-9c05-682046930408" />
        </g>
        <g
           id="id-dee0354e-96e6-4aac-a0f2-97c920579add">
          <path
             d="M 1.484375,-0.8125 C 1.5,-0.890625 1.546875,-1.078125 1.5625,-1.15625 1.578125,-1.234375 1.609375,-1.3125 1.625,-1.375 1.640625,-1.453125 1.796875,-1.71875 1.96875,-1.859375 2.140625,-2 2.296875,-2.03125 2.46875,-2.03125 c 0.0625,0 0.296875,0 0.46875,0.078125 -0.21875,0.078125 -0.21875,0.28125 -0.21875,0.296875 0,0.078125 0.0625,0.203125 0.21875,0.203125 0.140625,0 0.3125,-0.125 0.3125,-0.34375 0,-0.359375 -0.53125,-0.40625 -0.765625,-0.40625 -0.125,0 -0.453125,0 -0.796875,0.390625 -0.0625,-0.265625 -0.359375,-0.390625 -0.59375,-0.390625 -0.171875,0 -0.3125,0.078125 -0.453125,0.28125 -0.125,0.203125 -0.1875,0.46875 -0.1875,0.484375 0,0.078125 0.078125,0.078125 0.109375,0.078125 0.078125,0 0.078125,-0.015625 0.125,-0.140625 0.078125,-0.296875 0.1875,-0.53125 0.375,-0.53125 0.171875,0 0.203125,0.15625 0.203125,0.265625 0,0.0625 -0.046875,0.25 -0.078125,0.390625 -0.03125,0.125 -0.078125,0.328125 -0.109375,0.4375 L 0.96875,-0.484375 C 0.9375,-0.359375 0.875,-0.140625 0.875,-0.125 c 0,0.109375 0.09375,0.1875 0.1875,0.1875 0.078125,0 0.171875,-0.046875 0.21875,-0.140625 C 1.3125,-0.109375 1.34375,-0.28125 1.375,-0.375 Z m 0,0"
             id="id-0e842676-2670-4fca-b6f2-9209637263ec" />
        </g>
        <g
           id="id-872a442a-2834-45cd-a336-0fcc57a857a6">
          <path
             d="m 6.09375,-5.609375 c 0,-0.171875 0,-0.359375 -0.203125,-0.359375 -0.203125,0 -0.203125,0.1875 -0.203125,0.359375 V -2 c 0,1.5 -1.625,1.828125 -2.375,1.828125 -0.4375,0 -1.0625,-0.09375 -1.59375,-0.4375 C 0.953125,-1.09375 0.953125,-1.734375 0.953125,-2 v -3.609375 c 0,-0.171875 0,-0.359375 -0.203125,-0.359375 -0.203125,0 -0.203125,0.1875 -0.203125,0.359375 v 3.65625 c 0,1.515625 1.53125,2.171875 2.765625,2.171875 1.296875,0 2.78125,-0.703125 2.78125,-2.15625 z m 0,0"
             id="id-0d4d6263-b6e1-41ea-8bb0-b6932f39cd8b" />
        </g>
        <g
           id="id-4e1bf72d-d385-437c-8e2d-6cbba8865538">
          <path
             d="m 4,2.25 c 0.046875,0.140625 0.09375,0.25 0.234375,0.25 0.109375,0 0.1875,-0.09375 0.1875,-0.203125 0,-0.03125 0,-0.046875 -0.046875,-0.15625 l -3.40625,-9.375 c -0.0625,-0.171875 -0.09375,-0.25 -0.21875,-0.25 -0.109375,0 -0.203125,0.09375 -0.203125,0.203125 0,0.03125 0,0.046875 0.046875,0.15625 z m 0,0"
             id="id-4fbb925c-4d8e-40d6-8fb8-fa0055c12f5a" />
        </g>
        <g
           id="id-d6cf77a4-f19f-4728-ba6b-94d870b35134">
          <path
             d="m 2.828125,-6.15625 c 0,-0.390625 0.25,-1.03125 1.34375,-1.09375 C 4.21875,-7.265625 4.25,-7.3125 4.25,-7.359375 c 0,-0.125 -0.078125,-0.125 -0.1875,-0.125 -0.984375,0 -1.90625,0.515625 -1.90625,1.25 v 2.28125 c 0,0.390625 0,0.703125 -0.40625,1.03125 -0.34375,0.296875 -0.71875,0.3125 -0.9375,0.3125 C 0.75,-2.59375 0.71875,-2.546875 0.71875,-2.5 c 0,0.109375 0.0625,0.109375 0.15625,0.125 0.65625,0.03125 1.140625,0.390625 1.25,0.875 0.03125,0.109375 0.03125,0.140625 0.03125,0.5 v 1.96875 c 0,0.421875 0,0.734375 0.46875,1.109375 C 3.015625,2.375 3.671875,2.5 4.0625,2.5 4.171875,2.5 4.25,2.5 4.25,2.375 4.25,2.28125 4.203125,2.28125 4.09375,2.265625 3.46875,2.234375 2.984375,1.90625 2.84375,1.40625 2.828125,1.3125 2.828125,1.296875 2.828125,0.9375 v -2.09375 c 0,-0.453125 -0.09375,-0.625 -0.40625,-0.953125 C 2.21875,-2.3125 1.921875,-2.40625 1.640625,-2.5 c 0.828125,-0.21875 1.1875,-0.6875 1.1875,-1.265625 z m 0,0"
             id="id-1601997c-25f5-48f2-9bb6-5fb7419353b5" />
        </g>
        <g
           id="id-227520b3-869e-40b5-96e4-7a0d68c1244a">
          <path
             d="m 2.15625,1.171875 c 0,0.390625 -0.265625,1.03125 -1.34375,1.09375 C 0.75,2.28125 0.71875,2.328125 0.71875,2.375 0.71875,2.5 0.828125,2.5 0.921875,2.5 1.890625,2.5 2.8125,2 2.828125,1.25 v -2.28125 c 0,-0.390625 0,-0.703125 0.390625,-1.03125 C 3.5625,-2.359375 3.953125,-2.375 4.171875,-2.375 4.21875,-2.390625 4.25,-2.4375 4.25,-2.5 4.25,-2.59375 4.203125,-2.59375 4.09375,-2.609375 3.4375,-2.640625 2.953125,-3 2.84375,-3.484375 2.828125,-3.59375 2.828125,-3.625 2.828125,-3.984375 v -1.96875 c 0,-0.421875 0,-0.734375 -0.484375,-1.109375 C 1.9375,-7.375 1.25,-7.484375 0.921875,-7.484375 c -0.09375,0 -0.203125,0 -0.203125,0.125 0,0.09375 0.0625,0.09375 0.15625,0.109375 0.625,0.03125 1.125,0.359375 1.25,0.859375 0.03125,0.09375 0.03125,0.109375 0.03125,0.46875 v 2.09375 c 0,0.453125 0.078125,0.625 0.390625,0.953125 0.21875,0.203125 0.5,0.296875 0.78125,0.375 -0.8125,0.234375 -1.171875,0.703125 -1.171875,1.28125 z m 0,0"
             id="id-6245e539-a41e-4a60-a914-61ac9a18e3d7" />
        </g>
      </g>
    </defs>
    <g
       fill="#000000"
       fill-opacity="1"
       id="id-f0073f03-c81f-4276-bcaa-799159f92f80"
       transform="translate(-149.259,-127.281)">
      <g
         transform="translate(148.712,134.765)"
         id="g3058">
        <path
           d="m 2.859375,-6.8125 c 0,0 0,-0.109375 -0.125,-0.109375 -0.234375,0 -0.953125,0.078125 -1.21875,0.109375 -0.078125,0 -0.1875,0.015625 -0.1875,0.1875 0,0.125 0.09375,0.125 0.234375,0.125 0.484375,0 0.5,0.0625 0.5,0.171875 L 2.03125,-6.125 0.59375,-0.390625 c -0.046875,0.140625 -0.046875,0.15625 -0.046875,0.21875 0,0.234375 0.203125,0.28125 0.296875,0.28125 0.15625,0 0.3125,-0.125 0.359375,-0.265625 l 0.1875,-0.75 0.21875,-0.890625 C 1.671875,-2.03125 1.734375,-2.25 1.78125,-2.46875 1.796875,-2.53125 1.890625,-2.859375 1.890625,-2.921875 1.921875,-3.015625 2.234375,-3.5625 2.578125,-3.84375 2.796875,-4 3.09375,-4.1875 3.53125,-4.1875 c 0.421875,0 0.53125,0.34375 0.53125,0.703125 0,0.53125 -0.375,1.625 -0.609375,2.234375 C 3.375,-1.03125 3.3125,-0.90625 3.3125,-0.703125 c 0,0.46875 0.359375,0.8125 0.828125,0.8125 0.9375,0 1.296875,-1.453125 1.296875,-1.53125 0,-0.109375 -0.078125,-0.109375 -0.109375,-0.109375 -0.109375,0 -0.109375,0.03125 -0.15625,0.1875 -0.140625,0.53125 -0.46875,1.234375 -1.015625,1.234375 -0.171875,0 -0.234375,-0.09375 -0.234375,-0.328125 0,-0.25 0.078125,-0.484375 0.171875,-0.703125 0.15625,-0.4375 0.609375,-1.625 0.609375,-2.203125 0,-0.640625 -0.390625,-1.0625 -1.140625,-1.0625 -0.625,0 -1.109375,0.3125 -1.484375,0.765625 z m 0,0"
           id="id-9c8f978c-bc5d-4de9-b17b-d9fb4a5bd081" />
      </g>
    </g>
    <g
       fill="#000000"
       fill-opacity="1"
       id="id-8963435b-fbc6-402b-9477-fe4e93216815"
       transform="translate(-149.259,-127.281)">
      <g
         transform="translate(154.452,136.259)"
         id="g9297">
        <path
           d="m 2.328125,-4.4375 c 0,-0.1875 0,-0.1875 -0.203125,-0.1875 -0.453125,0.4375 -1.078125,0.4375 -1.359375,0.4375 v 0.25 c 0.15625,0 0.625,0 1,-0.1875 v 3.546875 c 0,0.234375 0,0.328125 -0.6875,0.328125 H 0.8125 V 0 c 0.125,0 0.984375,-0.03125 1.234375,-0.03125 0.21875,0 1.09375,0.03125 1.25,0.03125 V -0.25 H 3.03125 c -0.703125,0 -0.703125,-0.09375 -0.703125,-0.328125 z m 0,0"
           id="id-da6860ba-3d03-42aa-9230-397999ea4a97" />
      </g>
    </g>
    <g
       fill="#000000"
       fill-opacity="1"
       id="id-a5e39175-2a19-438d-82fb-1cafb0200ae3"
       transform="translate(-149.259,-127.281)">
      <g
         transform="translate(158.424,137.255)"
         id="g7913">
        <path
           d="M 1.484375,-0.8125 C 1.5,-0.890625 1.546875,-1.078125 1.5625,-1.15625 1.578125,-1.234375 1.609375,-1.3125 1.625,-1.375 1.640625,-1.453125 1.796875,-1.71875 1.96875,-1.859375 2.140625,-2 2.296875,-2.03125 2.46875,-2.03125 c 0.0625,0 0.296875,0 0.46875,0.078125 -0.21875,0.078125 -0.21875,0.28125 -0.21875,0.296875 0,0.078125 0.0625,0.203125 0.21875,0.203125 0.140625,0 0.3125,-0.125 0.3125,-0.34375 0,-0.359375 -0.53125,-0.40625 -0.765625,-0.40625 -0.125,0 -0.453125,0 -0.796875,0.390625 -0.0625,-0.265625 -0.359375,-0.390625 -0.59375,-0.390625 -0.171875,0 -0.3125,0.078125 -0.453125,0.28125 -0.125,0.203125 -0.1875,0.46875 -0.1875,0.484375 0,0.078125 0.078125,0.078125 0.109375,0.078125 0.078125,0 0.078125,-0.015625 0.125,-0.140625 0.078125,-0.296875 0.1875,-0.53125 0.375,-0.53125 0.171875,0 0.203125,0.15625 0.203125,0.265625 0,0.0625 -0.046875,0.25 -0.078125,0.390625 -0.03125,0.125 -0.078125,0.328125 -0.109375,0.4375 L 0.96875,-0.484375 C 0.9375,-0.359375 0.875,-0.140625 0.875,-0.125 c 0,0.109375 0.09375,0.1875 0.1875,0.1875 0.078125,0 0.171875,-0.046875 0.21875,-0.140625 C 1.3125,-0.109375 1.34375,-0.28125 1.375,-0.375 Z m 0,0"
           id="id-1ee06ccd-8fcf-4781-9798-3ed0d32136c5" />
      </g>
    </g>
    <g
       fill="#000000"
       fill-opacity="1"
       id="id-f44ef74b-0a0c-45f3-95e4-bdd88a72f877"
       transform="translate(-149.259,-127.281)">
      <g
         transform="translate(165.151,134.765)"
         id="g2782">
        <path
           d="m 6.09375,-5.609375 c 0,-0.171875 0,-0.359375 -0.203125,-0.359375 -0.203125,0 -0.203125,0.1875 -0.203125,0.359375 V -2 c 0,1.5 -1.625,1.828125 -2.375,1.828125 -0.4375,0 -1.0625,-0.09375 -1.59375,-0.4375 C 0.953125,-1.09375 0.953125,-1.734375 0.953125,-2 v -3.609375 c 0,-0.171875 0,-0.359375 -0.203125,-0.359375 -0.203125,0 -0.203125,0.1875 -0.203125,0.359375 v 3.65625 c 0,1.515625 1.53125,2.171875 2.765625,2.171875 1.296875,0 2.78125,-0.703125 2.78125,-2.15625 z m 0,0"
           id="id-968bc7c1-bc9f-48be-a5f3-3c0efa61d39c" />
      </g>
    </g>
    <g
       fill="#000000"
       fill-opacity="1"
       id="id-3015f482-c743-4bdc-be6f-d6ff11e474a5"
       transform="translate(-149.259,-127.281)">
      <g
         transform="translate(174.006,134.765)"
         id="g1795">
        <path
           d="m 2.859375,-6.8125 c 0,0 0,-0.109375 -0.125,-0.109375 -0.234375,0 -0.953125,0.078125 -1.21875,0.109375 -0.078125,0 -0.1875,0.015625 -0.1875,0.1875 0,0.125 0.09375,0.125 0.234375,0.125 0.484375,0 0.5,0.0625 0.5,0.171875 L 2.03125,-6.125 0.59375,-0.390625 c -0.046875,0.140625 -0.046875,0.15625 -0.046875,0.21875 0,0.234375 0.203125,0.28125 0.296875,0.28125 0.15625,0 0.3125,-0.125 0.359375,-0.265625 l 0.1875,-0.75 0.21875,-0.890625 C 1.671875,-2.03125 1.734375,-2.25 1.78125,-2.46875 1.796875,-2.53125 1.890625,-2.859375 1.890625,-2.921875 1.921875,-3.015625 2.234375,-3.5625 2.578125,-3.84375 2.796875,-4 3.09375,-4.1875 3.53125,-4.1875 c 0.421875,0 0.53125,0.34375 0.53125,0.703125 0,0.53125 -0.375,1.625 -0.609375,2.234375 C 3.375,-1.03125 3.3125,-0.90625 3.3125,-0.703125 c 0,0.46875 0.359375,0.8125 0.828125,0.8125 0.9375,0 1.296875,-1.453125 1.296875,-1.53125 0,-0.109375 -0.078125,-0.109375 -0.109375,-0.109375 -0.109375,0 -0.109375,0.03125 -0.15625,0.1875 -0.140625,0.53125 -0.46875,1.234375 -1.015625,1.234375 -0.171875,0 -0.234375,-0.09375 -0.234375,-0.328125 0,-0.25 0.078125,-0.484375 0.171875,-0.703125 0.15625,-0.4375 0.609375,-1.625 0.609375,-2.203125 0,-0.640625 -0.390625,-1.0625 -1.140625,-1.0625 -0.625,0 -1.109375,0.3125 -1.484375,0.765625 z m 0,0"
           id="id-aca8050d-73be-4435-b207-f0c849f0fc38" />
      </g>
    </g>
    <g
       fill="#000000"
       fill-opacity="1"
       id="id-8f4d07ab-a6e9-4260-baa3-c2b92c0baa61"
       transform="translate(-149.259,-127.281)">
      <g
         transform="translate(179.746,136.259)"
         id="g4209">
        <path
           d="M 3.515625,-1.265625 H 3.28125 c -0.015625,0.15625 -0.09375,0.5625 -0.1875,0.625 C 3.046875,-0.59375 2.515625,-0.59375 2.40625,-0.59375 H 1.125 c 0.734375,-0.640625 0.984375,-0.84375 1.390625,-1.171875 0.515625,-0.40625 1,-0.84375 1,-1.5 0,-0.84375 -0.734375,-1.359375 -1.625,-1.359375 -0.859375,0 -1.453125,0.609375 -1.453125,1.25 0,0.34375 0.296875,0.390625 0.375,0.390625 0.15625,0 0.359375,-0.125 0.359375,-0.375 0,-0.125 -0.046875,-0.375 -0.40625,-0.375 C 0.984375,-4.21875 1.453125,-4.375 1.78125,-4.375 c 0.703125,0 1.0625,0.546875 1.0625,1.109375 0,0.609375 -0.4375,1.078125 -0.65625,1.328125 L 0.515625,-0.265625 C 0.4375,-0.203125 0.4375,-0.1875 0.4375,0 h 2.875 z m 0,0"
           id="id-64e4d147-280c-461e-842c-ed5189d771fb" />
      </g>
    </g>
    <g
       fill="#000000"
       fill-opacity="1"
       id="id-e3916749-3665-4a0a-a50b-0f281a277aca"
       transform="translate(-149.259,-127.281)">
      <g
         transform="translate(183.718,137.255)"
         id="g4292">
        <path
           d="M 1.484375,-0.8125 C 1.5,-0.890625 1.546875,-1.078125 1.5625,-1.15625 1.578125,-1.234375 1.609375,-1.3125 1.625,-1.375 1.640625,-1.453125 1.796875,-1.71875 1.96875,-1.859375 2.140625,-2 2.296875,-2.03125 2.46875,-2.03125 c 0.0625,0 0.296875,0 0.46875,0.078125 -0.21875,0.078125 -0.21875,0.28125 -0.21875,0.296875 0,0.078125 0.0625,0.203125 0.21875,0.203125 0.140625,0 0.3125,-0.125 0.3125,-0.34375 0,-0.359375 -0.53125,-0.40625 -0.765625,-0.40625 -0.125,0 -0.453125,0 -0.796875,0.390625 -0.0625,-0.265625 -0.359375,-0.390625 -0.59375,-0.390625 -0.171875,0 -0.3125,0.078125 -0.453125,0.28125 -0.125,0.203125 -0.1875,0.46875 -0.1875,0.484375 0,0.078125 0.078125,0.078125 0.109375,0.078125 0.078125,0 0.078125,-0.015625 0.125,-0.140625 0.078125,-0.296875 0.1875,-0.53125 0.375,-0.53125 0.171875,0 0.203125,0.15625 0.203125,0.265625 0,0.0625 -0.046875,0.25 -0.078125,0.390625 -0.03125,0.125 -0.078125,0.328125 -0.109375,0.4375 L 0.96875,-0.484375 C 0.9375,-0.359375 0.875,-0.140625 0.875,-0.125 c 0,0.109375 0.09375,0.1875 0.1875,0.1875 0.078125,0 0.171875,-0.046875 0.21875,-0.140625 C 1.3125,-0.109375 1.34375,-0.28125 1.375,-0.375 Z m 0,0"
           id="id-8557cb53-c8ef-4740-9d9b-0acd15ec81e6" />
      </g>
    </g>
    <g
       fill="#000000"
       fill-opacity="1"
       id="id-76066a08-33e5-4237-af10-563edf29a8ce"
       transform="translate(-149.259,-127.281)">
      <g
         transform="translate(190.445,134.765)"
         id="g4102">
        <path
           d="m 4,2.25 c 0.046875,0.140625 0.09375,0.25 0.234375,0.25 0.109375,0 0.1875,-0.09375 0.1875,-0.203125 0,-0.03125 0,-0.046875 -0.046875,-0.15625 l -3.40625,-9.375 c -0.0625,-0.171875 -0.09375,-0.25 -0.21875,-0.25 -0.109375,0 -0.203125,0.09375 -0.203125,0.203125 0,0.03125 0,0.046875 0.046875,0.15625 z m 0,0"
           id="id-9c63ab8d-3e88-44dc-a26d-5c7f0d2b5e17" />
      </g>
    </g>
    <g
       fill="#000000"
       fill-opacity="1"
       id="id-56834208-25d3-4586-89d6-98074704824c"
       transform="translate(-149.259,-127.281)">
      <g
         transform="translate(197.638,134.765)"
         id="g2138">
        <path
           d="m 2.828125,-6.15625 c 0,-0.390625 0.25,-1.03125 1.34375,-1.09375 C 4.21875,-7.265625 4.25,-7.3125 4.25,-7.359375 c 0,-0.125 -0.078125,-0.125 -0.1875,-0.125 -0.984375,0 -1.90625,0.515625 -1.90625,1.25 v 2.28125 c 0,0.390625 0,0.703125 -0.40625,1.03125 -0.34375,0.296875 -0.71875,0.3125 -0.9375,0.3125 C 0.75,-2.59375 0.71875,-2.546875 0.71875,-2.5 c 0,0.109375 0.0625,0.109375 0.15625,0.125 0.65625,0.03125 1.140625,0.390625 1.25,0.875 0.03125,0.109375 0.03125,0.140625 0.03125,0.5 v 1.96875 c 0,0.421875 0,0.734375 0.46875,1.109375 C 3.015625,2.375 3.671875,2.5 4.0625,2.5 4.171875,2.5 4.25,2.5 4.25,2.375 4.25,2.28125 4.203125,2.28125 4.09375,2.265625 3.46875,2.234375 2.984375,1.90625 2.84375,1.40625 2.828125,1.3125 2.828125,1.296875 2.828125,0.9375 v -2.09375 c 0,-0.453125 -0.09375,-0.625 -0.40625,-0.953125 C 2.21875,-2.3125 1.921875,-2.40625 1.640625,-2.5 c 0.828125,-0.21875 1.1875,-0.6875 1.1875,-1.265625 z m 0,0"
           id="id-175ed906-6cc2-4e25-82bd-038f98817197" />
      </g>
    </g>
    <g
       fill="#000000"
       fill-opacity="1"
       id="id-2b2d3818-b573-4ce3-b469-bd7b51e7d75e"
       transform="translate(-149.259,-127.281)">
      <g
         transform="translate(202.621,134.765)"
         id="g4933">
        <path
           d="m 2.859375,-6.8125 c 0,0 0,-0.109375 -0.125,-0.109375 -0.234375,0 -0.953125,0.078125 -1.21875,0.109375 -0.078125,0 -0.1875,0.015625 -0.1875,0.1875 0,0.125 0.09375,0.125 0.234375,0.125 0.484375,0 0.5,0.0625 0.5,0.171875 L 2.03125,-6.125 0.59375,-0.390625 c -0.046875,0.140625 -0.046875,0.15625 -0.046875,0.21875 0,0.234375 0.203125,0.28125 0.296875,0.28125 0.15625,0 0.3125,-0.125 0.359375,-0.265625 l 0.1875,-0.75 0.21875,-0.890625 C 1.671875,-2.03125 1.734375,-2.25 1.78125,-2.46875 1.796875,-2.53125 1.890625,-2.859375 1.890625,-2.921875 1.921875,-3.015625 2.234375,-3.5625 2.578125,-3.84375 2.796875,-4 3.09375,-4.1875 3.53125,-4.1875 c 0.421875,0 0.53125,0.34375 0.53125,0.703125 0,0.53125 -0.375,1.625 -0.609375,2.234375 C 3.375,-1.03125 3.3125,-0.90625 3.3125,-0.703125 c 0,0.46875 0.359375,0.8125 0.828125,0.8125 0.9375,0 1.296875,-1.453125 1.296875,-1.53125 0,-0.109375 -0.078125,-0.109375 -0.109375,-0.109375 -0.109375,0 -0.109375,0.03125 -0.15625,0.1875 -0.140625,0.53125 -0.46875,1.234375 -1.015625,1.234375 -0.171875,0 -0.234375,-0.09375 -0.234375,-0.328125 0,-0.25 0.078125,-0.484375 0.171875,-0.703125 0.15625,-0.4375 0.609375,-1.625 0.609375,-2.203125 0,-0.640625 -0.390625,-1.0625 -1.140625,-1.0625 -0.625,0 -1.109375,0.3125 -1.484375,0.765625 z m 0,0"
           id="id-fa241cc1-ec84-4ec1-b9d7-b68a6bf86456" />
      </g>
    </g>
    <g
       fill="#000000"
       fill-opacity="1"
       id="id-302db423-60a3-4c8b-93b9-c26e713e1745"
       transform="translate(-149.259,-127.281)">
      <g
         transform="translate(208.361,136.259)"
         id="g9956">
        <path
           d="m 2.328125,-4.4375 c 0,-0.1875 0,-0.1875 -0.203125,-0.1875 -0.453125,0.4375 -1.078125,0.4375 -1.359375,0.4375 v 0.25 c 0.15625,0 0.625,0 1,-0.1875 v 3.546875 c 0,0.234375 0,0.328125 -0.6875,0.328125 H 0.8125 V 0 c 0.125,0 0.984375,-0.03125 1.234375,-0.03125 0.21875,0 1.09375,0.03125 1.25,0.03125 V -0.25 H 3.03125 c -0.703125,0 -0.703125,-0.09375 -0.703125,-0.328125 z m 0,0"
           id="id-4678dc1e-4d42-4559-a3ed-0851c565e8d0" />
      </g>
    </g>
    <g
       fill="#000000"
       fill-opacity="1"
       id="id-bd58f670-0dc7-414e-aae2-503d6faafa1c"
       transform="translate(-149.259,-127.281)">
      <g
         transform="translate(212.831,134.765)"
         id="g3846">
        <path
           d="m 2.03125,-0.015625 c 0,-0.65625 -0.25,-1.046875 -0.640625,-1.046875 -0.328125,0 -0.53125,0.25 -0.53125,0.53125 C 0.859375,-0.265625 1.0625,0 1.390625,0 1.5,0 1.640625,-0.046875 1.734375,-0.125 1.765625,-0.15625 1.78125,-0.15625 1.78125,-0.15625 c 0.015625,0 0.015625,0 0.015625,0.140625 0,0.75 -0.34375,1.34375 -0.671875,1.671875 -0.109375,0.109375 -0.109375,0.125 -0.109375,0.15625 0,0.078125 0.046875,0.109375 0.09375,0.109375 0.109375,0 0.921875,-0.765625 0.921875,-1.9375 z m 0,0"
           id="id-0094cc93-d6eb-4075-bb3f-bb2f08ec8cdc" />
      </g>
    </g>
    <g
       fill="#000000"
       fill-opacity="1"
       id="id-1e2a87b6-7c7c-45cf-81da-fb70a4ab69c0"
       transform="translate(-149.259,-127.281)">
      <g
         transform="translate(217.262,134.765)"
         id="g55">
        <path
           d="m 2.859375,-6.8125 c 0,0 0,-0.109375 -0.125,-0.109375 -0.234375,0 -0.953125,0.078125 -1.21875,0.109375 -0.078125,0 -0.1875,0.015625 -0.1875,0.1875 0,0.125 0.09375,0.125 0.234375,0.125 0.484375,0 0.5,0.0625 0.5,0.171875 L 2.03125,-6.125 0.59375,-0.390625 c -0.046875,0.140625 -0.046875,0.15625 -0.046875,0.21875 0,0.234375 0.203125,0.28125 0.296875,0.28125 0.15625,0 0.3125,-0.125 0.359375,-0.265625 l 0.1875,-0.75 0.21875,-0.890625 C 1.671875,-2.03125 1.734375,-2.25 1.78125,-2.46875 1.796875,-2.53125 1.890625,-2.859375 1.890625,-2.921875 1.921875,-3.015625 2.234375,-3.5625 2.578125,-3.84375 2.796875,-4 3.09375,-4.1875 3.53125,-4.1875 c 0.421875,0 0.53125,0.34375 0.53125,0.703125 0,0.53125 -0.375,1.625 -0.609375,2.234375 C 3.375,-1.03125 3.3125,-0.90625 3.3125,-0.703125 c 0,0.46875 0.359375,0.8125 0.828125,0.8125 0.9375,0 1.296875,-1.453125 1.296875,-1.53125 0,-0.109375 -0.078125,-0.109375 -0.109375,-0.109375 -0.109375,0 -0.109375,0.03125 -0.15625,0.1875 -0.140625,0.53125 -0.46875,1.234375 -1.015625,1.234375 -0.171875,0 -0.234375,-0.09375 -0.234375,-0.328125 0,-0.25 0.078125,-0.484375 0.171875,-0.703125 0.15625,-0.4375 0.609375,-1.625 0.609375,-2.203125 0,-0.640625 -0.390625,-1.0625 -1.140625,-1.0625 -0.625,0 -1.109375,0.3125 -1.484375,0.765625 z m 0,0"
           id="id-fb74b7c5-8f92-4e9f-8b3e-bb27c4bce4ff" />
      </g>
    </g>
    <g
       fill="#000000"
       fill-opacity="1"
       id="id-0d3d56bf-c876-444f-aae7-da8c9a657134"
       transform="translate(-149.259,-127.281)">
      <g
         transform="translate(222.999,136.259)"
         id="g69">
        <path
           d="M 3.515625,-1.265625 H 3.28125 c -0.015625,0.15625 -0.09375,0.5625 -0.1875,0.625 C 3.046875,-0.59375 2.515625,-0.59375 2.40625,-0.59375 H 1.125 c 0.734375,-0.640625 0.984375,-0.84375 1.390625,-1.171875 0.515625,-0.40625 1,-0.84375 1,-1.5 0,-0.84375 -0.734375,-1.359375 -1.625,-1.359375 -0.859375,0 -1.453125,0.609375 -1.453125,1.25 0,0.34375 0.296875,0.390625 0.375,0.390625 0.15625,0 0.359375,-0.125 0.359375,-0.375 0,-0.125 -0.046875,-0.375 -0.40625,-0.375 C 0.984375,-4.21875 1.453125,-4.375 1.78125,-4.375 c 0.703125,0 1.0625,0.546875 1.0625,1.109375 0,0.609375 -0.4375,1.078125 -0.65625,1.328125 L 0.515625,-0.265625 C 0.4375,-0.203125 0.4375,-0.1875 0.4375,0 h 2.875 z m 0,0"
           id="id-da881b40-6a57-4b19-aec8-85846c913ebe" />
      </g>
    </g>
    <g
       fill="#000000"
       fill-opacity="1"
       id="id-3939108b-f476-4a74-8abc-de9966d16868"
       transform="translate(-149.259,-127.281)">
      <g
         transform="translate(227.468,134.765)"
         id="g3222">
        <path
           d="m 2.15625,1.171875 c 0,0.390625 -0.265625,1.03125 -1.34375,1.09375 C 0.75,2.28125 0.71875,2.328125 0.71875,2.375 0.71875,2.5 0.828125,2.5 0.921875,2.5 1.890625,2.5 2.8125,2 2.828125,1.25 v -2.28125 c 0,-0.390625 0,-0.703125 0.390625,-1.03125 C 3.5625,-2.359375 3.953125,-2.375 4.171875,-2.375 4.21875,-2.390625 4.25,-2.4375 4.25,-2.5 4.25,-2.59375 4.203125,-2.59375 4.09375,-2.609375 3.4375,-2.640625 2.953125,-3 2.84375,-3.484375 2.828125,-3.59375 2.828125,-3.625 2.828125,-3.984375 v -1.96875 c 0,-0.421875 0,-0.734375 -0.484375,-1.109375 C 1.9375,-7.375 1.25,-7.484375 0.921875,-7.484375 c -0.09375,0 -0.203125,0 -0.203125,0.125 0,0.09375 0.0625,0.09375 0.15625,0.109375 0.625,0.03125 1.125,0.359375 1.25,0.859375 0.03125,0.09375 0.03125,0.109375 0.03125,0.46875 v 2.09375 c 0,0.453125 0.078125,0.625 0.390625,0.953125 0.21875,0.203125 0.5,0.296875 0.78125,0.375 -0.8125,0.234375 -1.171875,0.703125 -1.171875,1.28125 z m 0,0"
           id="id-b2a511f3-e51c-48c8-8c90-34a7e4d63d6d" />
      </g>
    </g>
  </g>
</svg>
